<svg width="650" height="68" viewBox="0 0 650 68" fill="none" xmlns="http://www.w3.org/2000/svg">
<mask id="path-1-inside-1_1096_6308" fill="white">
<path d="M29.6317 62.8246C30.4074 62.7912 31.1497 62.7579 31.8754 62.7162C32.601 62.6745 33.2933 62.6244 33.9689 62.566C34.6361 62.5077 35.2867 62.4409 35.9123 62.3742C36.5378 62.2991 37.1467 62.2157 37.7222 62.1323C38.2977 62.0489 38.8565 61.9572 39.3903 61.8487C39.9575 61.7403 40.6498 61.6069 41.317 61.4651C41.9843 61.3233 42.6182 61.1732 43.2187 61.0147C43.8192 60.8562 44.3947 60.6977 44.9285 60.5226C45.4707 60.3558 45.9795 60.1806 46.4465 59.9971C46.922 59.8053 47.364 59.6218 47.7727 59.4216C48.5901 59.0213 49.2824 58.6042 49.8328 58.1538C50.1164 57.9286 50.3583 57.6951 50.5752 57.4532C50.792 57.2197 50.9672 56.9694 51.109 56.7192C51.2508 56.4607 51.3675 56.2021 51.4342 55.9352C51.526 55.66 51.5594 55.3847 51.5677 55.1095C51.576 54.7842 51.5343 54.4839 51.4509 54.2004C51.3592 53.9168 51.2257 53.6415 51.0422 53.3996C50.8587 53.1494 50.6419 52.9159 50.375 52.699C50.1248 52.4822 49.8162 52.282 49.4909 52.0985C48.8236 51.7315 48.0313 51.4146 47.1471 51.156C46.2547 50.8891 45.2788 50.6806 44.2529 50.5054C43.2354 50.3303 42.1594 50.1885 41.0751 50.0717C39.9992 49.9633 38.9066 49.8715 37.8473 49.8048C36.7964 49.7298 35.7788 49.6797 34.8363 49.6297C33.9022 49.5713 33.0264 49.5296 32.3842 49.4795C32.3842 49.4795 31.7836 49.4128 30.8745 49.3127C30.4158 49.2543 29.882 49.196 29.3065 49.1292C28.7309 49.0542 28.1221 48.9708 27.5049 48.904C26.8877 48.8206 26.2621 48.7289 25.6699 48.6538C25.0861 48.5704 24.5356 48.487 24.0602 48.4203C23.0927 48.2701 22.4588 48.17 22.4588 48.17C21.3161 47.9865 20.3236 47.7947 19.4561 47.5779C18.572 47.3527 17.8297 47.1024 17.2292 46.8189C16.6036 46.5353 16.1282 46.2267 15.7862 45.8847C15.4359 45.5427 15.2274 45.1674 15.1523 44.7587C14.9939 44.0748 15.2691 43.566 15.8196 43.1656C16.3784 42.7736 17.2041 42.4984 18.155 42.3149C19.0891 42.1231 20.1401 42.0146 21.1576 41.9562C22.1668 41.8979 23.1344 41.8812 23.9351 41.8979C24.5189 41.9062 25.1194 41.9229 25.72 41.9646C26.3205 41.998 26.921 42.048 27.5132 42.1231C28.1054 42.1898 28.6893 42.2815 29.2981 42.39C30.0488 42.5067 30.7744 42.6402 31.4417 42.807C32.1173 42.9571 32.7345 43.1406 33.2933 43.3575C33.8605 43.566 34.3692 43.8162 34.7946 44.0915C35.2283 44.3667 35.587 44.667 35.8539 45.0173C36.1375 45.3509 36.3293 45.7262 36.421 46.1516C36.421 46.1516 37.3218 46.0932 38.6647 46.0098C39.3486 45.9681 40.1243 45.9181 40.9667 45.8597C41.8091 45.793 42.7016 45.7346 43.6024 45.6595C44.4948 45.5928 45.3956 45.5177 46.238 45.451C47.0721 45.3759 47.8644 45.3092 48.54 45.2425C49.8996 45.1174 50.8004 45.0256 50.8004 45.0256C50.817 44.6753 50.792 44.3417 50.742 44.0081C50.6836 43.6661 50.5918 43.3408 50.4584 43.0239C50.3416 42.6986 50.1665 42.3816 49.9663 42.0814C49.7745 41.7728 49.5326 41.4808 49.2573 41.1889C48.9821 40.897 48.6735 40.6217 48.3232 40.3548C47.9812 40.0796 47.5892 39.821 47.1638 39.5708C46.7385 39.3206 46.2881 39.0787 45.7876 38.8535C45.2788 38.62 44.7534 38.4031 44.1695 38.1946C43.594 37.9861 42.9768 37.7776 42.3262 37.5941C41.6757 37.4106 40.9834 37.2271 40.2494 37.0686C39.5154 36.8935 38.7481 36.7433 37.939 36.6015C37.13 36.4514 36.2793 36.318 35.3785 36.1929C34.486 36.0677 33.5435 35.951 32.576 35.8425C31.6001 35.7424 30.5659 35.634 29.4983 35.5506C28.4223 35.4505 27.3214 35.3755 26.1537 35.3004C25.2362 35.2337 24.3521 35.192 23.4346 35.1503C22.759 35.1252 22.0751 35.1086 21.3828 35.0919C20.6989 35.0835 20.0066 35.0752 19.3143 35.0752C18.6221 35.0752 17.9381 35.0835 17.2542 35.1002C16.5536 35.1169 15.8696 35.1503 15.194 35.1836C14.5101 35.217 13.8429 35.2587 13.1839 35.3254C12.5167 35.3755 11.8578 35.4422 11.2155 35.5256C10.5817 35.6007 9.96445 35.7007 9.35558 35.8092C8.75505 35.9176 8.16286 36.0344 7.61238 36.1845C7.04521 36.318 6.51141 36.4681 5.99429 36.6432C5.49385 36.8184 5.01843 37.0186 4.57638 37.2271C4.13432 37.4356 3.72563 37.6691 3.35864 37.9277C2.98331 38.1779 2.66636 38.4532 2.38278 38.7534C2.0992 39.037 1.85732 39.3623 1.67382 39.7043C1.49033 40.0462 1.34854 40.4049 1.25679 40.7969C1.18172 41.1806 1.14836 41.5893 1.17338 42.0146C1.20674 42.4484 1.27347 42.8987 1.41526 43.3742C1.59041 43.9914 1.86566 44.5752 2.20763 45.1424C2.55793 45.6845 2.98331 46.2183 3.46706 46.7188C3.95082 47.2025 4.51799 47.678 5.12686 48.1284C5.74407 48.5621 6.41966 48.9874 7.1453 49.3795C7.84592 49.7715 8.61326 50.1384 9.42231 50.4804C10.2147 50.8057 11.0487 51.106 11.9245 51.3812C12.7836 51.6481 13.6594 51.89 14.5685 52.1152C15.4609 52.3404 16.3868 52.5406 17.3126 52.7241C17.8964 52.8325 18.4719 52.9326 19.0391 53.016C19.5979 53.0994 20.1484 53.1661 20.6822 53.2328C21.2243 53.2996 21.7498 53.3579 22.2669 53.4163C22.7841 53.4664 23.2928 53.5164 23.7933 53.5665C24.2854 53.6082 24.7775 53.6499 25.2529 53.6916C25.7283 53.7416 26.2037 53.7833 26.6625 53.825C27.5716 53.9084 28.4641 53.9918 29.3148 54.0836C29.7986 54.1253 30.2907 54.1753 30.7828 54.2337C31.2832 54.2838 31.7753 54.3421 32.2591 54.4089C32.7512 54.4673 33.2266 54.534 33.677 54.6007C34.1357 54.6758 34.5694 54.7508 34.9865 54.8426C35.8372 55.0094 36.738 55.2012 37.3719 55.4348C38.0058 55.6767 38.3728 55.9686 38.3728 56.3356C38.3644 56.6942 38.0975 57.0278 37.5637 57.3364C37.08 57.6367 36.5378 57.8953 35.8038 58.1121C35.4535 58.2206 35.0448 58.3207 34.5944 58.4124C34.1524 58.5041 33.6686 58.5875 33.1348 58.6543C32.6177 58.7293 32.0505 58.7877 31.45 58.8378C30.8495 58.8878 30.2073 58.9212 29.5317 58.9462C28.6809 58.9879 27.8552 59.0046 27.0545 59.0046C26.2454 59.0129 25.4781 58.9879 24.7274 58.9629C23.9768 58.9212 23.2428 58.8711 22.5505 58.8044C21.8416 58.7293 21.166 58.6292 20.5237 58.5125C19.8732 58.3874 19.2559 58.2456 18.6721 58.0704C18.0966 57.9036 17.5461 57.7034 17.0457 57.4782C16.5452 57.253 16.0782 56.9945 15.6611 56.7192C15.2441 56.444 14.8688 56.1271 14.5518 55.7934C14.5518 55.7934 13.7595 55.7601 12.5417 55.7017C11.9328 55.6683 11.2072 55.6266 10.4232 55.5849C9.62248 55.5349 8.74671 55.4681 7.87094 55.4098C6.97015 55.343 6.06101 55.268 5.19358 55.1845C4.31781 55.1011 3.49209 55.0011 2.77479 54.9177C1.32351 54.7425 0.347656 54.6174 0.347656 54.6174C0.472766 54.951 0.639581 55.2846 0.873119 55.6099C1.09832 55.9269 1.37356 56.2438 1.68216 56.5524C1.98243 56.8527 2.33273 57.1529 2.70806 57.4365C3.09173 57.7285 3.50043 58.012 3.95082 58.2873C4.39288 58.5542 4.8683 58.8127 5.37708 59.0713C5.86918 59.3132 6.39464 59.5634 6.96181 59.7969C7.51229 60.0305 8.0878 60.2473 8.69666 60.4642C9.29719 60.6644 9.9144 60.8646 10.5733 61.0564C11.2072 61.2399 11.8745 61.4067 12.5584 61.5652C13.2507 61.7236 13.9513 61.8654 14.6853 61.9905C15.3942 62.124 16.1449 62.2324 16.9039 62.3408C17.6545 62.4409 18.4302 62.5243 19.2309 62.5994C20.0233 62.6661 20.8407 62.7245 21.6747 62.7746C22.4921 62.8246 23.3345 62.8496 24.2103 62.8746C25.0694 62.8913 25.9535 62.8913 26.8626 62.8913C27.7551 62.8747 28.6809 62.858 29.6317 62.8246Z"/>
</mask>
<path d="M29.6317 62.8246C30.4074 62.7912 31.1497 62.7579 31.8754 62.7162C32.601 62.6745 33.2933 62.6244 33.9689 62.566C34.6361 62.5077 35.2867 62.4409 35.9123 62.3742C36.5378 62.2991 37.1467 62.2157 37.7222 62.1323C38.2977 62.0489 38.8565 61.9572 39.3903 61.8487C39.9575 61.7403 40.6498 61.6069 41.317 61.4651C41.9843 61.3233 42.6182 61.1732 43.2187 61.0147C43.8192 60.8562 44.3947 60.6977 44.9285 60.5226C45.4707 60.3558 45.9795 60.1806 46.4465 59.9971C46.922 59.8053 47.364 59.6218 47.7727 59.4216C48.5901 59.0213 49.2824 58.6042 49.8328 58.1538C50.1164 57.9286 50.3583 57.6951 50.5752 57.4532C50.792 57.2197 50.9672 56.9694 51.109 56.7192C51.2508 56.4607 51.3675 56.2021 51.4342 55.9352C51.526 55.66 51.5594 55.3847 51.5677 55.1095C51.576 54.7842 51.5343 54.4839 51.4509 54.2004C51.3592 53.9168 51.2257 53.6415 51.0422 53.3996C50.8587 53.1494 50.6419 52.9159 50.375 52.699C50.1248 52.4822 49.8162 52.282 49.4909 52.0985C48.8236 51.7315 48.0313 51.4146 47.1471 51.156C46.2547 50.8891 45.2788 50.6806 44.2529 50.5054C43.2354 50.3303 42.1594 50.1885 41.0751 50.0717C39.9992 49.9633 38.9066 49.8715 37.8473 49.8048C36.7964 49.7298 35.7788 49.6797 34.8363 49.6297C33.9022 49.5713 33.0264 49.5296 32.3842 49.4795C32.3842 49.4795 31.7836 49.4128 30.8745 49.3127C30.4158 49.2543 29.882 49.196 29.3065 49.1292C28.7309 49.0542 28.1221 48.9708 27.5049 48.904C26.8877 48.8206 26.2621 48.7289 25.6699 48.6538C25.0861 48.5704 24.5356 48.487 24.0602 48.4203C23.0927 48.2701 22.4588 48.17 22.4588 48.17C21.3161 47.9865 20.3236 47.7947 19.4561 47.5779C18.572 47.3527 17.8297 47.1024 17.2292 46.8189C16.6036 46.5353 16.1282 46.2267 15.7862 45.8847C15.4359 45.5427 15.2274 45.1674 15.1523 44.7587C14.9939 44.0748 15.2691 43.566 15.8196 43.1656C16.3784 42.7736 17.2041 42.4984 18.155 42.3149C19.0891 42.1231 20.1401 42.0146 21.1576 41.9562C22.1668 41.8979 23.1344 41.8812 23.9351 41.8979C24.5189 41.9062 25.1194 41.9229 25.72 41.9646C26.3205 41.998 26.921 42.048 27.5132 42.1231C28.1054 42.1898 28.6893 42.2815 29.2981 42.39C30.0488 42.5067 30.7744 42.6402 31.4417 42.807C32.1173 42.9571 32.7345 43.1406 33.2933 43.3575C33.8605 43.566 34.3692 43.8162 34.7946 44.0915C35.2283 44.3667 35.587 44.667 35.8539 45.0173C36.1375 45.3509 36.3293 45.7262 36.421 46.1516C36.421 46.1516 37.3218 46.0932 38.6647 46.0098C39.3486 45.9681 40.1243 45.9181 40.9667 45.8597C41.8091 45.793 42.7016 45.7346 43.6024 45.6595C44.4948 45.5928 45.3956 45.5177 46.238 45.451C47.0721 45.3759 47.8644 45.3092 48.54 45.2425C49.8996 45.1174 50.8004 45.0256 50.8004 45.0256C50.817 44.6753 50.792 44.3417 50.742 44.0081C50.6836 43.6661 50.5918 43.3408 50.4584 43.0239C50.3416 42.6986 50.1665 42.3816 49.9663 42.0814C49.7745 41.7728 49.5326 41.4808 49.2573 41.1889C48.9821 40.897 48.6735 40.6217 48.3232 40.3548C47.9812 40.0796 47.5892 39.821 47.1638 39.5708C46.7385 39.3206 46.2881 39.0787 45.7876 38.8535C45.2788 38.62 44.7534 38.4031 44.1695 38.1946C43.594 37.9861 42.9768 37.7776 42.3262 37.5941C41.6757 37.4106 40.9834 37.2271 40.2494 37.0686C39.5154 36.8935 38.7481 36.7433 37.939 36.6015C37.13 36.4514 36.2793 36.318 35.3785 36.1929C34.486 36.0677 33.5435 35.951 32.576 35.8425C31.6001 35.7424 30.5659 35.634 29.4983 35.5506C28.4223 35.4505 27.3214 35.3755 26.1537 35.3004C25.2362 35.2337 24.3521 35.192 23.4346 35.1503C22.759 35.1252 22.0751 35.1086 21.3828 35.0919C20.6989 35.0835 20.0066 35.0752 19.3143 35.0752C18.6221 35.0752 17.9381 35.0835 17.2542 35.1002C16.5536 35.1169 15.8696 35.1503 15.194 35.1836C14.5101 35.217 13.8429 35.2587 13.1839 35.3254C12.5167 35.3755 11.8578 35.4422 11.2155 35.5256C10.5817 35.6007 9.96445 35.7007 9.35558 35.8092C8.75505 35.9176 8.16286 36.0344 7.61238 36.1845C7.04521 36.318 6.51141 36.4681 5.99429 36.6432C5.49385 36.8184 5.01843 37.0186 4.57638 37.2271C4.13432 37.4356 3.72563 37.6691 3.35864 37.9277C2.98331 38.1779 2.66636 38.4532 2.38278 38.7534C2.0992 39.037 1.85732 39.3623 1.67382 39.7043C1.49033 40.0462 1.34854 40.4049 1.25679 40.7969C1.18172 41.1806 1.14836 41.5893 1.17338 42.0146C1.20674 42.4484 1.27347 42.8987 1.41526 43.3742C1.59041 43.9914 1.86566 44.5752 2.20763 45.1424C2.55793 45.6845 2.98331 46.2183 3.46706 46.7188C3.95082 47.2025 4.51799 47.678 5.12686 48.1284C5.74407 48.5621 6.41966 48.9874 7.1453 49.3795C7.84592 49.7715 8.61326 50.1384 9.42231 50.4804C10.2147 50.8057 11.0487 51.106 11.9245 51.3812C12.7836 51.6481 13.6594 51.89 14.5685 52.1152C15.4609 52.3404 16.3868 52.5406 17.3126 52.7241C17.8964 52.8325 18.4719 52.9326 19.0391 53.016C19.5979 53.0994 20.1484 53.1661 20.6822 53.2328C21.2243 53.2996 21.7498 53.3579 22.2669 53.4163C22.7841 53.4664 23.2928 53.5164 23.7933 53.5665C24.2854 53.6082 24.7775 53.6499 25.2529 53.6916C25.7283 53.7416 26.2037 53.7833 26.6625 53.825C27.5716 53.9084 28.4641 53.9918 29.3148 54.0836C29.7986 54.1253 30.2907 54.1753 30.7828 54.2337C31.2832 54.2838 31.7753 54.3421 32.2591 54.4089C32.7512 54.4673 33.2266 54.534 33.677 54.6007C34.1357 54.6758 34.5694 54.7508 34.9865 54.8426C35.8372 55.0094 36.738 55.2012 37.3719 55.4348C38.0058 55.6767 38.3728 55.9686 38.3728 56.3356C38.3644 56.6942 38.0975 57.0278 37.5637 57.3364C37.08 57.6367 36.5378 57.8953 35.8038 58.1121C35.4535 58.2206 35.0448 58.3207 34.5944 58.4124C34.1524 58.5041 33.6686 58.5875 33.1348 58.6543C32.6177 58.7293 32.0505 58.7877 31.45 58.8378C30.8495 58.8878 30.2073 58.9212 29.5317 58.9462C28.6809 58.9879 27.8552 59.0046 27.0545 59.0046C26.2454 59.0129 25.4781 58.9879 24.7274 58.9629C23.9768 58.9212 23.2428 58.8711 22.5505 58.8044C21.8416 58.7293 21.166 58.6292 20.5237 58.5125C19.8732 58.3874 19.2559 58.2456 18.6721 58.0704C18.0966 57.9036 17.5461 57.7034 17.0457 57.4782C16.5452 57.253 16.0782 56.9945 15.6611 56.7192C15.2441 56.444 14.8688 56.1271 14.5518 55.7934C14.5518 55.7934 13.7595 55.7601 12.5417 55.7017C11.9328 55.6683 11.2072 55.6266 10.4232 55.5849C9.62248 55.5349 8.74671 55.4681 7.87094 55.4098C6.97015 55.343 6.06101 55.268 5.19358 55.1845C4.31781 55.1011 3.49209 55.0011 2.77479 54.9177C1.32351 54.7425 0.347656 54.6174 0.347656 54.6174C0.472766 54.951 0.639581 55.2846 0.873119 55.6099C1.09832 55.9269 1.37356 56.2438 1.68216 56.5524C1.98243 56.8527 2.33273 57.1529 2.70806 57.4365C3.09173 57.7285 3.50043 58.012 3.95082 58.2873C4.39288 58.5542 4.8683 58.8127 5.37708 59.0713C5.86918 59.3132 6.39464 59.5634 6.96181 59.7969C7.51229 60.0305 8.0878 60.2473 8.69666 60.4642C9.29719 60.6644 9.9144 60.8646 10.5733 61.0564C11.2072 61.2399 11.8745 61.4067 12.5584 61.5652C13.2507 61.7236 13.9513 61.8654 14.6853 61.9905C15.3942 62.124 16.1449 62.2324 16.9039 62.3408C17.6545 62.4409 18.4302 62.5243 19.2309 62.5994C20.0233 62.6661 20.8407 62.7245 21.6747 62.7746C22.4921 62.8246 23.3345 62.8496 24.2103 62.8746C25.0694 62.8913 25.9535 62.8913 26.8626 62.8913C27.7551 62.8747 28.6809 62.858 29.6317 62.8246Z" stroke="#5D7488" stroke-width="2" mask="url(#path-1-inside-1_1096_6308)"/>
<path d="M177.318 21.9012L177.318 21.9013C177.513 21.6 177.711 21.2824 177.915 20.9542C178.013 20.7965 178.112 20.6363 178.214 20.4743C178.53 19.9666 178.846 19.4592 179.146 18.9768C179.447 18.4745 179.74 18.0064 179.998 17.5979C180.068 17.4828 180.135 17.3728 180.198 17.2687C179.502 17.4508 178.52 17.7059 177.294 18.0202L177.289 18.0215C175.992 18.3395 174.411 18.7075 172.606 19.1004L172.604 19.1009C170.798 19.4854 168.751 19.8949 166.513 20.3207L166.51 20.3212C165.385 20.5296 164.206 20.747 162.968 20.9562C161.835 21.1565 160.653 21.3496 159.439 21.5481L159.127 21.5991L159.124 21.5996C157.795 21.8085 156.409 22.0172 154.99 22.2259L154.989 22.226C153.552 22.435 152.073 22.6355 150.563 22.8358L150.561 22.8359C149.016 23.0364 147.437 23.2285 145.827 23.4204L145.823 23.4208C144.188 23.6044 142.501 23.7881 140.798 23.9635L140.794 23.9638C139.05 24.1307 137.264 24.2977 135.444 24.4563L135.441 24.4566L135.315 24.4668C133.507 24.6133 131.67 24.7622 129.415 25.0527C126.458 25.6108 123.492 26.1606 120.586 26.6936L120.582 26.6942C117.655 27.2113 114.768 27.7203 111.914 28.2126L111.912 28.213C109.067 28.6885 106.239 29.1557 103.443 29.6063L103.441 29.6067C100.672 30.0405 97.9263 30.466 95.2058 30.875L95.2047 30.8751C93.5055 31.1268 92.0025 31.3458 90.6984 31.5359C89.9289 31.648 89.2287 31.75 88.5984 31.8427L88.5933 31.8434L88.5933 31.8434C86.8832 32.077 85.2228 32.3023 83.5957 32.5192L83.5913 32.5198C83.1627 32.5731 82.7362 32.6264 82.312 32.6795C81.1447 32.8254 79.9949 32.9692 78.8681 33.1039L78.8655 33.1042C77.3318 33.2793 75.8563 33.446 74.4306 33.6044C73.0143 33.7839 71.78 33.9504 70.6609 34.1013C69.8484 34.2109 69.0967 34.3123 68.38 34.4045L68.3726 34.4055L68.3652 34.4062C66.6683 34.5734 65.1974 34.6987 63.9869 34.7989L63.9855 34.799C62.7838 34.895 61.8386 34.968 61.1936 35.0171C60.9191 35.038 60.699 35.0545 60.5367 35.0666L60.5283 35.0919C60.4565 35.3084 60.3545 35.6164 60.2338 35.9826C60.2337 35.9829 60.2336 35.9832 60.2336 35.9835L59.7587 35.827C59.6454 36.175 59.5085 36.5781 59.3633 37.0056L177.318 21.9012ZM177.318 21.9012L177.311 21.9126C177.135 22.1997 176.969 22.4667 176.814 22.715C176.726 22.8552 176.642 22.9895 176.562 23.1182C176.346 23.4637 176.167 23.7488 176.042 23.9476L175.957 24.0828L175.767 24.1253C175.51 24.1824 175.133 24.266 174.653 24.3717C173.694 24.5831 172.324 24.883 170.678 25.2371C169.021 25.5786 167.083 25.9695 165.004 26.352C163.964 26.535 162.883 26.7181 161.783 26.9013L161.781 26.9017C160.666 27.093 159.535 27.2761 158.403 27.4509L158.4 27.4513C157.252 27.6343 156.095 27.8091 154.954 27.9757C154.773 28.0016 154.594 28.0276 154.414 28.0535C153.44 28.194 152.481 28.3323 151.54 28.4587L151.538 28.4588C149.282 28.767 147.149 29.0419 145.275 29.2751C143.371 29.4918 141.763 29.6709 140.63 29.7959C140.064 29.8585 139.616 29.9074 139.311 29.9408L138.961 29.9788L138.872 29.9885L138.849 29.991L138.843 29.9916L138.842 29.9918L138.841 29.9918L138.841 29.9918L138.895 30.4889L138.841 29.9918L138.609 30.0169L138.479 30.2116L138.479 30.2116L138.479 30.2118L138.478 30.2126L138.476 30.2158L138.467 30.2287L138.433 30.2797L138.3 30.4784C138.184 30.6521 138.013 30.906 137.797 31.2267L137.797 31.2266L137.79 31.2367C137.736 31.3217 137.68 31.4097 137.622 31.5009C137.453 31.7675 137.267 32.0609 137.047 32.3849L137.043 32.3903C136.75 32.8346 136.432 33.3286 136.097 33.8641C135.875 34.2028 135.65 34.5587 135.419 34.9238C135.286 35.1353 135.15 35.35 135.012 35.5661C134.826 35.8578 134.639 36.1583 134.459 36.4599C134.185 36.7777 133.85 37.121 133.5 37.4792C133.319 37.664 133.141 37.8485 132.964 38.0318L132.963 38.0323C132.786 38.2158 132.61 38.3981 132.432 38.5802L132.432 38.5801L132.424 38.5882C132.293 38.7287 132.167 38.8649 132.043 38.9991C131.821 39.2383 131.606 39.4711 131.377 39.7102C131.103 39.997 130.842 40.2855 130.586 40.5682C130.502 40.6611 130.418 40.7535 130.335 40.8449L130.33 40.85C130.17 41.0306 130.003 41.2138 129.834 41.3998L129.833 41.4016C129.665 41.5861 129.494 41.7736 129.329 41.9593L129.323 41.9663L129.317 41.9734C129.088 42.2526 128.855 42.5208 128.616 42.7962C128.539 42.8849 128.461 42.9743 128.383 43.0651L128.382 43.065L128.374 43.0753C128.297 43.169 128.221 43.2622 128.144 43.3554C127.926 43.6209 127.709 43.8851 127.497 44.1526C127.208 44.4993 126.92 44.8472 126.655 45.1973C126.388 45.5391 126.129 45.8728 125.879 46.1982L125.879 46.1981L125.874 46.2047C125.831 46.263 125.787 46.3218 125.743 46.3808C125.549 46.6409 125.35 46.9067 125.174 47.1662C124.95 47.4731 124.732 47.7759 124.529 48.0719L124.529 48.0718L124.523 48.08C124.425 48.2292 124.327 48.377 124.231 48.5229C123.955 48.9399 123.688 49.3419 123.456 49.7186C123.145 50.2235 122.875 50.6787 122.639 51.0925L122.637 51.0955C122.592 51.1759 122.547 51.2548 122.504 51.332C122.333 51.6339 122.178 51.9091 122.055 52.1409L122.054 52.1436C121.903 52.4327 121.789 52.6578 121.713 52.8118L121.533 52.8388L120.292 53.0251L115.859 53.6903L115.859 53.6903C114.575 53.8838 113.143 54.0978 111.612 54.3266C110.965 54.4233 110.3 54.5227 109.622 54.6242C108.562 54.7762 107.475 54.9346 106.369 55.0958C105.097 55.2812 103.798 55.4704 102.484 55.6582L102.483 55.6583C100.057 56.0085 97.6224 56.3587 95.3298 56.6838C93.2713 56.9677 91.8788 57.132 90.7166 57.269C90.6531 57.2765 90.5903 57.2839 90.5282 57.2913C89.328 57.4288 88.3259 57.5413 87.6238 57.6194C87.4825 57.6351 87.3533 57.6495 87.2372 57.6623C87.2451 57.633 87.2533 57.6029 87.2618 57.5719C87.3085 57.4261 87.3593 57.2492 87.4123 57.0643C87.4526 56.924 87.4942 56.7791 87.5363 56.6398L87.5372 56.6368C87.6442 56.2745 87.7672 55.8729 87.9144 55.4311C87.9466 55.3394 87.979 55.2467 88.0117 55.1531C88.1415 54.7813 88.2766 54.3943 88.4331 53.9899L88.4383 53.9766L88.4427 53.9629C88.5184 53.7283 88.6188 53.48 88.7389 53.2156L88.748 53.1957L88.7553 53.1751C88.8014 53.0444 88.8541 52.9115 88.9115 52.7686C88.9177 52.753 88.924 52.7373 88.9304 52.7214C88.9788 52.601 89.0302 52.4732 89.0787 52.3435C89.2132 52.0564 89.3386 51.7554 89.4592 51.466C89.5085 51.3587 89.5552 51.2549 89.6011 51.1531C89.6917 50.9517 89.779 50.7579 89.876 50.5585L89.8796 50.5512L89.8828 50.5439C89.9746 50.3389 90.071 50.1391 90.1709 49.932C90.2226 49.8248 90.2753 49.7157 90.3287 49.6029C90.4773 49.2893 90.6334 48.9689 90.7972 48.6495C90.837 48.5719 90.8777 48.4929 90.9189 48.413C91.0453 48.168 91.176 47.9147 91.2967 47.6673C91.3395 47.5895 91.3815 47.5128 91.4231 47.4368C91.5596 47.1874 91.6919 46.9457 91.8343 46.698C92.0089 46.408 92.2726 46.0888 92.5713 45.7486C92.8722 45.4059 93.1649 45.063 93.4495 44.72C93.5858 44.5689 93.7122 44.4255 93.8354 44.2857C94.0037 44.0948 94.1661 43.9106 94.3395 43.7227L94.3464 43.7152L94.3531 43.7074C94.6341 43.3768 94.9129 43.0571 95.2069 42.7385L95.207 42.7386L95.2122 42.7328C95.2584 42.6811 95.3045 42.6296 95.3504 42.5782C95.8694 41.9981 96.3701 41.4384 96.8494 40.921L96.8495 40.921L96.8546 40.9153C97.3689 40.3429 97.8671 39.8032 98.3082 39.3288C98.5792 39.0377 98.828 38.7687 99.0534 38.525C99.2018 38.3644 99.3402 38.2149 99.468 38.0772C99.8012 37.7191 100.066 37.4359 100.247 37.2424L100.454 37.021L100.507 36.9642L100.521 36.9498L100.524 36.9463L100.525 36.9454L100.525 36.9452L100.525 36.9451L100.161 36.6026M177.318 21.9012L59.8243 37.2028C59.7755 37.3522 59.7257 37.5016 59.6758 37.6512C59.5774 37.9463 59.4786 38.2427 59.3856 38.5435L59.3824 38.554L59.3823 38.554C59.2319 39.005 59.0815 39.448 58.9392 39.858C58.8964 39.9868 58.8541 40.1164 58.8124 40.2442C58.7297 40.4978 58.6492 40.7447 58.5704 40.9643C58.5311 41.0776 58.4943 41.1841 58.4604 41.2824C58.6458 41.2677 58.8628 41.2504 59.1087 41.2306C60.0036 41.1587 61.2808 41.0546 62.8102 40.9254C64.336 40.792 66.1228 40.634 68.0333 40.4181C68.8685 40.3181 69.7221 40.2059 70.5923 40.0916C70.7345 40.0729 70.8772 40.0541 71.0203 40.0353C71.2354 40.0071 71.4524 39.9781 71.6743 39.9483C72.4954 39.8384 73.3844 39.7193 74.4993 39.6005C75.9079 39.4338 77.316 39.2671 78.6989 39.1005C80.083 38.9338 81.4401 38.7672 82.7547 38.5925L82.7559 38.5924C85.3744 38.2505 87.8236 37.9256 89.9221 37.6258C92.8609 37.1964 95.4018 36.8171 97.2078 36.5451C98.1109 36.409 98.8303 36.2999 99.3239 36.2247L99.8895 36.1384L100.035 36.116L100.073 36.1103L100.082 36.1089L100.084 36.1086L100.085 36.1085L100.085 36.1084L100.161 36.6026M100.161 36.6026L100.085 36.1084L101.519 35.8881L100.525 36.9451L100.161 36.6026ZM151.606 28.9542C149.346 29.2628 147.211 29.5381 145.334 29.7716L151.606 28.9542ZM151.606 28.9542C152.55 28.8275 153.511 28.6888 154.486 28.5483C154.665 28.5224 154.845 28.4964 155.026 28.4705L151.606 28.9542Z" stroke="#5D7488"/>
<mask id="path-3-inside-2_1096_6308" fill="white">
<path d="M153.309 48.3788C153.309 48.3788 154.785 48.1286 156.97 47.7533C158.054 47.5698 159.314 47.3446 160.64 47.1111C161.975 46.8609 163.367 46.6023 164.769 46.3354C166.153 46.0601 167.529 45.7849 168.822 45.5263C170.107 45.2761 171.299 45.0342 172.309 44.8257C174.335 44.417 175.687 44.1418 175.687 44.1418C175.687 44.1418 176.379 43.6664 177.438 42.9658C177.972 42.6155 178.589 42.1984 179.265 41.7564C179.949 41.306 180.674 40.8305 181.425 40.3468C182.159 39.863 182.91 39.3709 183.619 38.9205C184.328 38.4535 184.995 38.0197 185.579 37.6444C186.746 36.8937 187.539 36.385 187.539 36.385C187.539 36.385 188.214 36.2348 189.382 35.9679C190.558 35.701 192.251 35.309 194.311 34.8336C195.337 34.5917 196.455 34.3248 197.823 34.1246C199.399 34.0162 201.101 33.9078 202.936 33.8577C204.804 33.8077 206.781 33.7827 208.782 33.7577C210.851 33.766 213.003 33.7994 215.213 33.8911C217.657 34.158 220.459 34.6585 223.153 35.1172C225.597 35.5092 227.407 35.7761 229.15 36.018C230.885 36.2515 232.562 36.4684 234.146 36.6519C235.731 36.8354 237.241 36.9938 238.634 37.1356C240.427 37.3358 241.278 37.4526 241.87 37.536C242.462 37.6194 242.796 37.6611 242.796 37.6611C242.796 37.6611 243.279 38.1866 243.997 38.9539C244.364 39.3376 244.772 39.7796 245.214 40.2467C245.656 40.7138 246.115 41.2059 246.574 41.6896C247.041 42.1734 247.5 42.6572 247.917 43.0992C248.342 43.5496 248.734 43.9583 249.076 44.3086C249.743 45.0092 250.185 45.468 250.185 45.468C250.185 45.468 250.836 45.5263 251.795 45.6097C252.271 45.6598 252.829 45.7098 253.422 45.7599C254.022 45.8099 254.648 45.8683 255.282 45.9267C255.907 45.9851 256.533 46.0435 257.117 46.0935C257.7 46.1519 258.259 46.2019 258.718 46.2436C259.66 46.327 260.286 46.3854 260.286 46.3854C260.286 46.3854 259.802 45.86 258.96 44.9425C258.543 44.4754 258.034 43.9166 257.45 43.266C257.158 42.9407 256.85 42.5904 256.516 42.2234C256.191 41.8481 255.84 41.4561 255.473 41.0474C255.115 40.6304 254.731 40.1967 254.339 39.7463C253.939 39.2875 253.53 38.8204 253.105 38.3284C252.671 37.8279 252.229 37.3108 251.779 36.7853C251.32 36.2432 250.853 35.6927 250.369 35.1255C249.885 34.55 249.393 33.9495 248.884 33.3406C248.376 32.7234 247.858 32.0812 247.333 31.4389C246.791 30.7717 246.249 30.0961 245.698 29.4038C245.139 28.7032 244.581 27.9776 244.013 27.2436C243.43 26.4846 242.846 25.7256 242.253 24.9416C241.653 24.1409 241.052 23.3235 240.435 22.4978C239.818 21.647 239.184 20.7712 238.567 19.9038C237.925 19.003 237.282 18.0855 236.64 17.1514C235.981 16.1922 235.514 15.4582 235.072 14.7493C234.655 14.0487 234.255 13.3814 233.863 12.7225C233.462 12.0469 233.104 11.413 232.745 10.7958C232.386 10.1619 232.053 9.55304 231.736 8.97754C231.419 8.39369 231.102 7.82652 230.81 7.27604C230.501 6.71722 230.218 6.19175 229.968 5.70799C229.451 4.71545 229 3.84802 228.642 3.14741C227.958 1.75451 227.566 0.937134 227.566 0.937134C227.566 0.937134 226.915 0.937129 225.964 0.94547C225.489 0.953811 224.938 0.953812 224.388 1.0122C223.879 1.12063 223.337 1.22071 222.795 1.33748C222.244 1.45425 221.702 1.56268 221.185 1.66277C220.676 1.76286 220.192 1.86295 219.775 1.94635C218.95 2.10483 218.391 2.22159 218.391 2.22159C218.391 2.22159 217.332 3.45601 215.363 5.60791C214.429 6.61713 213.311 7.79316 211.677 9.25277C210.767 10.0118 209.825 10.7875 208.841 11.5798C207.873 12.3472 206.881 13.1395 205.871 13.9319C204.871 14.6992 203.853 15.4749 202.819 16.2589C201.81 17.0179 200.784 17.7686 199.758 18.5193C198.732 19.2532 197.706 19.9872 196.663 20.7212C195.637 21.4301 194.603 22.1391 193.577 22.8397C192.568 23.5237 191.542 24.2076 190.533 24.8832C189.524 25.5504 188.506 26.2094 187.505 26.8599C186.504 27.5105 185.504 28.1527 184.511 28.795C183.527 29.4205 182.543 30.0544 181.567 30.68C180.599 31.2972 179.64 31.906 178.698 32.5066C177.763 33.0987 176.821 33.6909 175.903 34.2748C174.994 34.8419 174.102 35.4091 173.209 35.9679C172.334 36.5101 171.483 37.0522 170.641 37.5777C169.798 38.1031 168.981 38.6119 168.188 39.1124C167.396 39.6045 166.612 40.0882 165.861 40.5553C165.119 41.0224 164.402 41.4728 163.693 41.9148C163.009 42.3485 162.333 42.7656 161.691 43.1659C161.049 43.5663 160.448 43.9416 159.864 44.3086C159.289 44.6673 158.747 45.0009 158.23 45.3178C157.22 45.9517 156.328 46.5022 155.602 46.9526C154.143 47.8617 153.309 48.3788 153.309 48.3788ZM197.714 28.87C197.714 28.87 199.116 27.9692 201.284 26.568C202.393 25.8424 203.72 24.9833 205.313 24.1242C206.147 23.6988 207.039 23.2651 207.957 22.823C208.874 22.3643 209.817 21.8972 210.759 21.4218C211.735 20.9464 212.728 20.4543 213.728 19.9705C214.738 19.4784 215.764 18.9863 216.673 18.5026C217.974 17.5601 219.208 16.6426 220.292 15.8252C222.503 14.0987 224.012 12.881 224.012 12.881C224.012 12.881 224.646 13.8401 225.589 15.2497C226.056 15.9503 226.615 16.7594 227.207 17.6268C227.524 18.0689 227.841 18.5276 228.166 18.9947C228.483 19.4451 228.825 19.9205 229.167 20.3959C229.526 20.888 229.884 21.3718 230.36 21.9806C230.852 22.5812 231.336 23.1733 231.786 23.7322C232.678 24.8165 233.496 25.8007 234.171 26.618C235.514 28.2028 236.373 29.212 236.373 29.212C236.373 29.212 235.347 28.9951 233.254 28.6198C231.235 28.3613 228.875 28.0276 226.323 27.6273C223.746 27.2019 221.452 27.1185 218.774 27.0768C215.705 27.0935 212.753 27.1685 210.017 27.2519C207.373 27.3604 204.987 27.5272 203.002 27.694C199.708 28.3529 197.714 28.87 197.714 28.87Z"/>
</mask>
<path d="M153.309 48.3788C153.309 48.3788 154.785 48.1286 156.97 47.7533C158.054 47.5698 159.314 47.3446 160.64 47.1111C161.975 46.8609 163.367 46.6023 164.769 46.3354C166.153 46.0601 167.529 45.7849 168.822 45.5263C170.107 45.2761 171.299 45.0342 172.309 44.8257C174.335 44.417 175.687 44.1418 175.687 44.1418C175.687 44.1418 176.379 43.6664 177.438 42.9658C177.972 42.6155 178.589 42.1984 179.265 41.7564C179.949 41.306 180.674 40.8305 181.425 40.3468C182.159 39.863 182.91 39.3709 183.619 38.9205C184.328 38.4535 184.995 38.0197 185.579 37.6444C186.746 36.8937 187.539 36.385 187.539 36.385C187.539 36.385 188.214 36.2348 189.382 35.9679C190.558 35.701 192.251 35.309 194.311 34.8336C195.337 34.5917 196.455 34.3248 197.823 34.1246C199.399 34.0162 201.101 33.9078 202.936 33.8577C204.804 33.8077 206.781 33.7827 208.782 33.7577C210.851 33.766 213.003 33.7994 215.213 33.8911C217.657 34.158 220.459 34.6585 223.153 35.1172C225.597 35.5092 227.407 35.7761 229.15 36.018C230.885 36.2515 232.562 36.4684 234.146 36.6519C235.731 36.8354 237.241 36.9938 238.634 37.1356C240.427 37.3358 241.278 37.4526 241.87 37.536C242.462 37.6194 242.796 37.6611 242.796 37.6611C242.796 37.6611 243.279 38.1866 243.997 38.9539C244.364 39.3376 244.772 39.7796 245.214 40.2467C245.656 40.7138 246.115 41.2059 246.574 41.6896C247.041 42.1734 247.5 42.6572 247.917 43.0992C248.342 43.5496 248.734 43.9583 249.076 44.3086C249.743 45.0092 250.185 45.468 250.185 45.468C250.185 45.468 250.836 45.5263 251.795 45.6097C252.271 45.6598 252.829 45.7098 253.422 45.7599C254.022 45.8099 254.648 45.8683 255.282 45.9267C255.907 45.9851 256.533 46.0435 257.117 46.0935C257.7 46.1519 258.259 46.2019 258.718 46.2436C259.66 46.327 260.286 46.3854 260.286 46.3854C260.286 46.3854 259.802 45.86 258.96 44.9425C258.543 44.4754 258.034 43.9166 257.45 43.266C257.158 42.9407 256.85 42.5904 256.516 42.2234C256.191 41.8481 255.84 41.4561 255.473 41.0474C255.115 40.6304 254.731 40.1967 254.339 39.7463C253.939 39.2875 253.53 38.8204 253.105 38.3284C252.671 37.8279 252.229 37.3108 251.779 36.7853C251.32 36.2432 250.853 35.6927 250.369 35.1255C249.885 34.55 249.393 33.9495 248.884 33.3406C248.376 32.7234 247.858 32.0812 247.333 31.4389C246.791 30.7717 246.249 30.0961 245.698 29.4038C245.139 28.7032 244.581 27.9776 244.013 27.2436C243.43 26.4846 242.846 25.7256 242.253 24.9416C241.653 24.1409 241.052 23.3235 240.435 22.4978C239.818 21.647 239.184 20.7712 238.567 19.9038C237.925 19.003 237.282 18.0855 236.64 17.1514C235.981 16.1922 235.514 15.4582 235.072 14.7493C234.655 14.0487 234.255 13.3814 233.863 12.7225C233.462 12.0469 233.104 11.413 232.745 10.7958C232.386 10.1619 232.053 9.55304 231.736 8.97754C231.419 8.39369 231.102 7.82652 230.81 7.27604C230.501 6.71722 230.218 6.19175 229.968 5.70799C229.451 4.71545 229 3.84802 228.642 3.14741C227.958 1.75451 227.566 0.937134 227.566 0.937134C227.566 0.937134 226.915 0.937129 225.964 0.94547C225.489 0.953811 224.938 0.953812 224.388 1.0122C223.879 1.12063 223.337 1.22071 222.795 1.33748C222.244 1.45425 221.702 1.56268 221.185 1.66277C220.676 1.76286 220.192 1.86295 219.775 1.94635C218.95 2.10483 218.391 2.22159 218.391 2.22159C218.391 2.22159 217.332 3.45601 215.363 5.60791C214.429 6.61713 213.311 7.79316 211.677 9.25277C210.767 10.0118 209.825 10.7875 208.841 11.5798C207.873 12.3472 206.881 13.1395 205.871 13.9319C204.871 14.6992 203.853 15.4749 202.819 16.2589C201.81 17.0179 200.784 17.7686 199.758 18.5193C198.732 19.2532 197.706 19.9872 196.663 20.7212C195.637 21.4301 194.603 22.1391 193.577 22.8397C192.568 23.5237 191.542 24.2076 190.533 24.8832C189.524 25.5504 188.506 26.2094 187.505 26.8599C186.504 27.5105 185.504 28.1527 184.511 28.795C183.527 29.4205 182.543 30.0544 181.567 30.68C180.599 31.2972 179.64 31.906 178.698 32.5066C177.763 33.0987 176.821 33.6909 175.903 34.2748C174.994 34.8419 174.102 35.4091 173.209 35.9679C172.334 36.5101 171.483 37.0522 170.641 37.5777C169.798 38.1031 168.981 38.6119 168.188 39.1124C167.396 39.6045 166.612 40.0882 165.861 40.5553C165.119 41.0224 164.402 41.4728 163.693 41.9148C163.009 42.3485 162.333 42.7656 161.691 43.1659C161.049 43.5663 160.448 43.9416 159.864 44.3086C159.289 44.6673 158.747 45.0009 158.23 45.3178C157.22 45.9517 156.328 46.5022 155.602 46.9526C154.143 47.8617 153.309 48.3788 153.309 48.3788ZM197.714 28.87C197.714 28.87 199.116 27.9692 201.284 26.568C202.393 25.8424 203.72 24.9833 205.313 24.1242C206.147 23.6988 207.039 23.2651 207.957 22.823C208.874 22.3643 209.817 21.8972 210.759 21.4218C211.735 20.9464 212.728 20.4543 213.728 19.9705C214.738 19.4784 215.764 18.9863 216.673 18.5026C217.974 17.5601 219.208 16.6426 220.292 15.8252C222.503 14.0987 224.012 12.881 224.012 12.881C224.012 12.881 224.646 13.8401 225.589 15.2497C226.056 15.9503 226.615 16.7594 227.207 17.6268C227.524 18.0689 227.841 18.5276 228.166 18.9947C228.483 19.4451 228.825 19.9205 229.167 20.3959C229.526 20.888 229.884 21.3718 230.36 21.9806C230.852 22.5812 231.336 23.1733 231.786 23.7322C232.678 24.8165 233.496 25.8007 234.171 26.618C235.514 28.2028 236.373 29.212 236.373 29.212C236.373 29.212 235.347 28.9951 233.254 28.6198C231.235 28.3613 228.875 28.0276 226.323 27.6273C223.746 27.2019 221.452 27.1185 218.774 27.0768C215.705 27.0935 212.753 27.1685 210.017 27.2519C207.373 27.3604 204.987 27.5272 203.002 27.694C199.708 28.3529 197.714 28.87 197.714 28.87Z" stroke="#5D7488" stroke-width="2" mask="url(#path-3-inside-2_1096_6308)"/>
<mask id="path-4-inside-3_1096_6308" fill="white">
<path d="M288.401 48.8545C289.218 48.9379 290.019 49.0129 290.811 49.0797C291.604 49.1464 292.388 49.2131 293.155 49.2715C294.715 49.3883 296.216 49.4884 297.684 49.5634C299.16 49.6385 300.603 49.6885 302.08 49.7219C303.564 49.7553 304.999 49.7386 306.375 49.7136C307.768 49.6718 309.111 49.6135 310.395 49.5217C311.696 49.4383 312.939 49.3132 314.182 49.1714C315.458 49.0213 316.676 48.8461 317.818 48.6376C318.978 48.4208 319.845 48.1955 320.646 47.937C321.447 47.6784 322.197 47.3782 322.881 47.0445C323.574 46.7026 324.207 46.3272 324.783 45.9019C325.367 45.4848 325.859 45.0178 326.293 44.5173C326.726 44.0085 327.093 43.4497 327.402 42.8492C327.719 42.2487 327.952 41.5981 328.128 40.9058C328.311 40.2052 328.436 39.4629 328.503 38.6705C328.578 37.8698 328.595 37.0191 328.553 36.1266C328.536 35.6846 328.503 35.2175 328.461 34.7421C328.411 34.2666 328.353 33.7829 328.278 33.2741C328.211 32.7737 328.119 32.2732 328.019 31.7811C327.919 31.2974 327.802 30.8053 327.677 30.3215C327.419 29.3373 327.11 28.3698 326.751 27.4273C326.384 26.4598 325.951 25.5256 325.475 24.6081C324.991 23.6656 324.449 22.7482 323.849 21.8557C323.24 20.9382 322.581 20.0541 321.905 19.195C321.238 18.3193 320.513 17.4769 319.729 16.6428C318.944 15.8087 318.119 14.9997 317.293 14.2157C316.442 13.4233 315.525 12.6726 314.507 11.9553C313.506 11.2214 312.447 10.5208 311.313 9.84516C309.928 9.24463 308.46 8.69415 306.992 8.17702C305.583 7.65156 304.106 7.15946 302.58 6.70072C301.054 6.21696 299.486 5.75823 297.868 5.33285C296.3 4.89914 294.74 4.49045 293.13 4.11512C291.529 3.70642 289.877 3.31441 288.192 2.94742C286.75 2.70554 285.415 2.56375 284.072 2.46366C282.796 2.33021 281.495 2.23012 280.169 2.14672C280.169 2.14672 279.71 2.11335 278.918 2.05497C278.125 1.99659 277.008 1.90484 275.673 1.77973C275.014 1.713 274.297 1.63794 273.546 1.56287C272.804 1.47947 272.012 1.38772 271.203 1.30431C270.393 1.21256 269.568 1.12082 268.717 1.02073C267.883 0.945663 267.032 0.895619 266.198 0.845575C265.356 0.812213 264.522 0.778848 263.704 0.745485C262.887 0.712122 262.086 0.678757 261.31 0.645395C260.543 0.603691 259.792 0.553652 259.092 0.52029C258.383 0.461905 257.724 0.428538 257.115 0.378494C255.889 0.278406 254.93 0.303427 254.279 0.34513C253.629 0.395174 253.262 0.411857 253.262 0.411857C253.262 0.411857 253.295 1.41274 253.537 3.40616C253.687 4.4404 253.879 5.65814 254.087 7.01767C254.304 8.32715 254.538 9.76175 254.796 11.2631C254.922 11.997 255.055 12.756 255.197 13.515C255.33 14.2657 255.472 15.0247 255.614 15.8004C255.764 16.5511 255.914 17.3184 256.064 18.0774C256.214 18.8281 256.364 19.5871 256.523 20.3377C256.681 21.08 256.84 21.8224 256.998 22.5563C257.157 23.282 257.315 24.0076 257.474 24.7249C257.641 25.4255 257.807 26.1261 257.974 26.8184C258.133 27.5024 258.299 28.1779 258.466 28.8369C258.625 29.4958 258.792 30.138 258.958 30.7719C259.117 31.3974 259.284 32.0146 259.451 32.6235C259.609 33.2157 259.767 33.7996 259.926 34.3667C260.093 34.9256 260.243 35.4844 260.401 36.0182C260.56 36.552 260.71 37.0691 260.86 37.5695C261.002 38.0616 261.152 38.5454 261.294 39.0125C261.444 39.4795 261.577 39.9216 261.719 40.347C261.853 40.7724 261.978 41.1894 262.111 41.5814C262.361 42.3571 262.595 43.066 262.812 43.6916C263.02 44.3088 263.204 44.8426 263.354 45.293C263.663 46.1688 263.838 46.6692 263.838 46.6692C263.838 46.6692 264.146 46.6942 264.688 46.7359C265.231 46.7776 266.006 46.836 266.94 46.9028C267.407 46.9445 267.916 46.9778 268.458 47.0279C268.992 47.0696 269.576 47.1196 270.16 47.1613C270.76 47.2114 271.378 47.2614 272.012 47.3198C272.645 47.3698 273.296 47.4282 273.947 47.4866C274.606 47.545 275.298 47.6034 275.99 47.6618C276.691 47.7201 277.466 47.7952 278.375 47.8786C279.285 47.9704 280.169 48.0538 281.011 48.1372C281.854 48.2122 282.654 48.2956 283.397 48.3707C284.89 48.5125 286.124 48.6376 287.008 48.721C287.892 48.8128 288.401 48.8545 288.401 48.8545ZM271.027 40.9642C271.027 40.9642 270.936 40.6306 270.769 40.0467C270.685 39.7548 270.594 39.3961 270.485 38.9875C270.368 38.5704 270.252 38.095 270.118 37.5779C269.976 37.0524 269.843 36.4769 269.693 35.868C269.551 35.2425 269.401 34.5752 269.242 33.883C269.092 33.1824 268.925 32.44 268.767 31.6727C268.617 30.897 268.458 30.088 268.3 29.2706C268.141 28.4365 268 27.5858 267.85 26.735C267.699 25.8676 267.558 25.0002 267.433 24.1494C267.299 23.282 267.174 22.4229 267.057 21.6055C266.94 20.7714 266.832 19.9624 266.74 19.2117C266.64 18.4527 266.557 17.7354 266.482 17.1015C266.407 16.451 266.34 15.8838 266.29 15.4084C266.181 14.4242 266.131 13.8654 266.131 13.8654C266.131 13.8654 266.849 13.882 267.95 13.9154C268.5 13.9404 269.142 13.9821 269.843 14.0405C270.544 14.0989 271.286 14.174 272.045 14.2407C272.796 14.3241 273.563 14.3992 274.272 14.4659C274.989 14.5326 275.656 14.591 276.24 14.6494C277.408 14.7495 278.192 14.8162 278.192 14.8162C279.009 14.8829 279.793 14.958 280.577 15.0414C281.395 15.1331 282.304 15.2833 283.313 15.5085C284.322 15.717 285.307 15.9338 286.241 16.159C287.192 16.3759 288.084 16.6011 288.96 16.843C290.72 17.2934 292.329 17.7771 293.881 18.336C295.449 18.8781 296.875 19.487 298.16 20.1792C299.444 20.8548 300.587 21.6055 301.579 22.4479C302.58 23.2736 303.448 24.1911 304.223 25.192C304.607 25.6924 304.957 26.2095 305.266 26.7517C305.574 27.2855 305.858 27.8443 306.108 28.4198C306.35 28.9953 306.567 29.5875 306.759 30.2047C306.934 30.8136 307.084 31.4475 307.201 32.1064C307.343 32.7737 307.418 33.3992 307.459 33.9914C307.493 34.5752 307.493 35.1257 307.434 35.6428C307.384 36.1516 307.293 36.627 307.142 37.0691C307.009 37.5112 306.817 37.9198 306.592 38.2952C306.142 39.0458 305.508 39.6881 304.707 40.2219C303.923 40.7473 302.972 41.1727 301.863 41.5147C300.77 41.84 299.577 42.0818 298.268 42.2487C296.975 42.4071 295.541 42.4905 293.998 42.5239C293.23 42.5322 292.43 42.5322 291.612 42.5156C290.786 42.4989 289.936 42.4739 289.06 42.4322C288.209 42.3904 287.358 42.3404 286.483 42.2737C285.624 42.2153 284.731 42.1402 283.814 42.0568C283.814 42.0568 282.854 41.9651 281.428 41.8316C280.719 41.7649 279.893 41.6898 279.009 41.6064C278.134 41.523 277.191 41.4313 276.249 41.3479C275.465 41.2811 274.806 41.2311 274.213 41.1894C273.613 41.1477 273.062 41.106 272.587 41.0726C271.645 41.0059 271.027 40.9642 271.027 40.9642Z"/>
</mask>
<path d="M288.401 48.8545C289.218 48.9379 290.019 49.0129 290.811 49.0797C291.604 49.1464 292.388 49.2131 293.155 49.2715C294.715 49.3883 296.216 49.4884 297.684 49.5634C299.16 49.6385 300.603 49.6885 302.08 49.7219C303.564 49.7553 304.999 49.7386 306.375 49.7136C307.768 49.6718 309.111 49.6135 310.395 49.5217C311.696 49.4383 312.939 49.3132 314.182 49.1714C315.458 49.0213 316.676 48.8461 317.818 48.6376C318.978 48.4208 319.845 48.1955 320.646 47.937C321.447 47.6784 322.197 47.3782 322.881 47.0445C323.574 46.7026 324.207 46.3272 324.783 45.9019C325.367 45.4848 325.859 45.0178 326.293 44.5173C326.726 44.0085 327.093 43.4497 327.402 42.8492C327.719 42.2487 327.952 41.5981 328.128 40.9058C328.311 40.2052 328.436 39.4629 328.503 38.6705C328.578 37.8698 328.595 37.0191 328.553 36.1266C328.536 35.6846 328.503 35.2175 328.461 34.7421C328.411 34.2666 328.353 33.7829 328.278 33.2741C328.211 32.7737 328.119 32.2732 328.019 31.7811C327.919 31.2974 327.802 30.8053 327.677 30.3215C327.419 29.3373 327.11 28.3698 326.751 27.4273C326.384 26.4598 325.951 25.5256 325.475 24.6081C324.991 23.6656 324.449 22.7482 323.849 21.8557C323.24 20.9382 322.581 20.0541 321.905 19.195C321.238 18.3193 320.513 17.4769 319.729 16.6428C318.944 15.8087 318.119 14.9997 317.293 14.2157C316.442 13.4233 315.525 12.6726 314.507 11.9553C313.506 11.2214 312.447 10.5208 311.313 9.84516C309.928 9.24463 308.46 8.69415 306.992 8.17702C305.583 7.65156 304.106 7.15946 302.58 6.70072C301.054 6.21696 299.486 5.75823 297.868 5.33285C296.3 4.89914 294.74 4.49045 293.13 4.11512C291.529 3.70642 289.877 3.31441 288.192 2.94742C286.75 2.70554 285.415 2.56375 284.072 2.46366C282.796 2.33021 281.495 2.23012 280.169 2.14672C280.169 2.14672 279.71 2.11335 278.918 2.05497C278.125 1.99659 277.008 1.90484 275.673 1.77973C275.014 1.713 274.297 1.63794 273.546 1.56287C272.804 1.47947 272.012 1.38772 271.203 1.30431C270.393 1.21256 269.568 1.12082 268.717 1.02073C267.883 0.945663 267.032 0.895619 266.198 0.845575C265.356 0.812213 264.522 0.778848 263.704 0.745485C262.887 0.712122 262.086 0.678757 261.31 0.645395C260.543 0.603691 259.792 0.553652 259.092 0.52029C258.383 0.461905 257.724 0.428538 257.115 0.378494C255.889 0.278406 254.93 0.303427 254.279 0.34513C253.629 0.395174 253.262 0.411857 253.262 0.411857C253.262 0.411857 253.295 1.41274 253.537 3.40616C253.687 4.4404 253.879 5.65814 254.087 7.01767C254.304 8.32715 254.538 9.76175 254.796 11.2631C254.922 11.997 255.055 12.756 255.197 13.515C255.33 14.2657 255.472 15.0247 255.614 15.8004C255.764 16.5511 255.914 17.3184 256.064 18.0774C256.214 18.8281 256.364 19.5871 256.523 20.3377C256.681 21.08 256.84 21.8224 256.998 22.5563C257.157 23.282 257.315 24.0076 257.474 24.7249C257.641 25.4255 257.807 26.1261 257.974 26.8184C258.133 27.5024 258.299 28.1779 258.466 28.8369C258.625 29.4958 258.792 30.138 258.958 30.7719C259.117 31.3974 259.284 32.0146 259.451 32.6235C259.609 33.2157 259.767 33.7996 259.926 34.3667C260.093 34.9256 260.243 35.4844 260.401 36.0182C260.56 36.552 260.71 37.0691 260.86 37.5695C261.002 38.0616 261.152 38.5454 261.294 39.0125C261.444 39.4795 261.577 39.9216 261.719 40.347C261.853 40.7724 261.978 41.1894 262.111 41.5814C262.361 42.3571 262.595 43.066 262.812 43.6916C263.02 44.3088 263.204 44.8426 263.354 45.293C263.663 46.1688 263.838 46.6692 263.838 46.6692C263.838 46.6692 264.146 46.6942 264.688 46.7359C265.231 46.7776 266.006 46.836 266.94 46.9028C267.407 46.9445 267.916 46.9778 268.458 47.0279C268.992 47.0696 269.576 47.1196 270.16 47.1613C270.76 47.2114 271.378 47.2614 272.012 47.3198C272.645 47.3698 273.296 47.4282 273.947 47.4866C274.606 47.545 275.298 47.6034 275.99 47.6618C276.691 47.7201 277.466 47.7952 278.375 47.8786C279.285 47.9704 280.169 48.0538 281.011 48.1372C281.854 48.2122 282.654 48.2956 283.397 48.3707C284.89 48.5125 286.124 48.6376 287.008 48.721C287.892 48.8128 288.401 48.8545 288.401 48.8545ZM271.027 40.9642C271.027 40.9642 270.936 40.6306 270.769 40.0467C270.685 39.7548 270.594 39.3961 270.485 38.9875C270.368 38.5704 270.252 38.095 270.118 37.5779C269.976 37.0524 269.843 36.4769 269.693 35.868C269.551 35.2425 269.401 34.5752 269.242 33.883C269.092 33.1824 268.925 32.44 268.767 31.6727C268.617 30.897 268.458 30.088 268.3 29.2706C268.141 28.4365 268 27.5858 267.85 26.735C267.699 25.8676 267.558 25.0002 267.433 24.1494C267.299 23.282 267.174 22.4229 267.057 21.6055C266.94 20.7714 266.832 19.9624 266.74 19.2117C266.64 18.4527 266.557 17.7354 266.482 17.1015C266.407 16.451 266.34 15.8838 266.29 15.4084C266.181 14.4242 266.131 13.8654 266.131 13.8654C266.131 13.8654 266.849 13.882 267.95 13.9154C268.5 13.9404 269.142 13.9821 269.843 14.0405C270.544 14.0989 271.286 14.174 272.045 14.2407C272.796 14.3241 273.563 14.3992 274.272 14.4659C274.989 14.5326 275.656 14.591 276.24 14.6494C277.408 14.7495 278.192 14.8162 278.192 14.8162C279.009 14.8829 279.793 14.958 280.577 15.0414C281.395 15.1331 282.304 15.2833 283.313 15.5085C284.322 15.717 285.307 15.9338 286.241 16.159C287.192 16.3759 288.084 16.6011 288.96 16.843C290.72 17.2934 292.329 17.7771 293.881 18.336C295.449 18.8781 296.875 19.487 298.16 20.1792C299.444 20.8548 300.587 21.6055 301.579 22.4479C302.58 23.2736 303.448 24.1911 304.223 25.192C304.607 25.6924 304.957 26.2095 305.266 26.7517C305.574 27.2855 305.858 27.8443 306.108 28.4198C306.35 28.9953 306.567 29.5875 306.759 30.2047C306.934 30.8136 307.084 31.4475 307.201 32.1064C307.343 32.7737 307.418 33.3992 307.459 33.9914C307.493 34.5752 307.493 35.1257 307.434 35.6428C307.384 36.1516 307.293 36.627 307.142 37.0691C307.009 37.5112 306.817 37.9198 306.592 38.2952C306.142 39.0458 305.508 39.6881 304.707 40.2219C303.923 40.7473 302.972 41.1727 301.863 41.5147C300.77 41.84 299.577 42.0818 298.268 42.2487C296.975 42.4071 295.541 42.4905 293.998 42.5239C293.23 42.5322 292.43 42.5322 291.612 42.5156C290.786 42.4989 289.936 42.4739 289.06 42.4322C288.209 42.3904 287.358 42.3404 286.483 42.2737C285.624 42.2153 284.731 42.1402 283.814 42.0568C283.814 42.0568 282.854 41.9651 281.428 41.8316C280.719 41.7649 279.893 41.6898 279.009 41.6064C278.134 41.523 277.191 41.4313 276.249 41.3479C275.465 41.2811 274.806 41.2311 274.213 41.1894C273.613 41.1477 273.062 41.106 272.587 41.0726C271.645 41.0059 271.027 40.9642 271.027 40.9642Z" stroke="#5D7488" stroke-width="2" mask="url(#path-4-inside-3_1096_6308)"/>
<path d="M337.511 6.85305C337.617 6.86081 337.738 6.8698 337.871 6.88007C338.438 6.9236 339.245 6.98994 340.203 7.08115C340.684 7.1351 341.213 7.19203 341.771 7.25203C342.323 7.31142 342.904 7.37382 343.493 7.43935C343.493 7.43936 343.494 7.43937 343.494 7.43939L343.549 6.94244L337.511 6.85305ZM337.511 6.85305C337.512 6.94199 337.512 7.0415 337.513 7.15121C337.516 7.69337 337.522 8.48459 337.535 9.48008L337.535 9.48204C337.537 9.76504 337.542 10.0662 337.547 10.3836C337.558 11.1348 337.571 11.9777 337.56 12.8893C337.577 14.1534 337.601 15.5248 337.643 16.9787L337.643 16.9812C337.651 17.3242 337.665 17.6758 337.68 18.0355L337.68 18.0563C337.695 18.4198 337.71 18.7911 337.718 19.1612C337.751 19.892 337.768 20.6462 337.784 21.3858L337.785 21.408C337.797 21.7857 337.806 22.165 337.814 22.542L337.814 22.5469C337.822 22.9223 337.831 23.2955 337.843 23.6683C337.864 24.0409 337.881 24.415 337.897 24.7869L337.898 24.7981C337.914 25.1691 337.931 25.538 337.951 25.9064L337.952 25.9173L337.952 25.9173C337.976 26.6521 338.018 27.387 338.075 28.1219L338.076 28.1327L338.076 28.1327C338.118 28.8628 338.167 29.5826 338.233 30.3094L338.234 30.3199L338.234 30.3199C338.284 31.0335 338.342 31.7337 338.424 32.4315L338.425 32.4397L338.425 32.4479C338.483 33.1334 338.558 33.8283 338.633 34.5209C338.707 35.2001 338.79 35.8801 338.873 36.5456C338.893 36.6881 338.912 36.8301 338.932 36.9718C339.003 37.4964 339.074 38.0158 339.14 38.5347C339.166 38.7059 339.191 38.875 339.216 39.0427C339.288 39.5239 339.358 39.993 339.438 40.4638L339.439 40.469C339.496 40.8306 339.556 41.1767 339.617 41.5233C339.663 41.7909 339.71 42.0588 339.755 42.3342C339.854 42.9368 339.962 43.5321 340.07 44.1132C340.109 44.3084 340.147 44.5007 340.185 44.6902C340.26 45.0658 340.333 45.4309 340.409 45.7881L340.411 45.7953L340.411 45.7953C340.459 46.0337 340.512 46.2881 340.565 46.5416C340.625 46.8253 340.684 47.1079 340.735 47.3655C340.783 47.5747 340.829 47.778 340.875 47.9771C340.94 48.2635 341.003 48.5413 341.066 48.8154C341.282 49.7287 341.486 50.5524 341.713 51.2735C341.895 51.7888 342.067 52.2561 342.221 52.6731C342.284 52.8437 342.344 53.0059 342.4 53.1595C342.595 53.6788 342.751 54.0878 342.857 54.367C342.878 54.4202 342.896 54.4687 342.913 54.5123L342.941 54.5153L343.876 54.6169C344.683 54.7045 345.838 54.8295 347.23 54.9797C347.995 55.0616 348.832 55.1538 349.721 55.2517C350.46 55.333 351.235 55.4184 352.035 55.5052C353.812 55.697 355.714 55.9055 357.632 56.1224C359.576 56.331 361.479 56.5396 363.215 56.74L363.217 56.7402C364.976 56.9486 366.618 57.1403 368.05 57.2985C369.484 57.4527 370.688 57.5798 371.534 57.6683C371.757 57.6917 371.955 57.7123 372.126 57.7301C372.052 57.4809 371.961 57.1701 371.853 56.8035C371.691 56.266 371.522 55.6076 371.347 54.8744C371.207 54.3536 371.066 53.7817 370.915 53.1702C370.85 52.9051 370.783 52.6326 370.713 52.3535L370.709 52.3378L370.706 52.3217C370.654 52.0351 370.587 51.745 370.516 51.4359C370.476 51.26 370.434 51.078 370.393 50.8869L370.391 50.8775L370.391 50.8775C370.36 50.7236 370.328 50.5639 370.295 50.4007C370.221 50.0419 370.145 49.6659 370.081 49.2953C369.972 48.7416 369.871 48.1726 369.772 47.6C369.738 47.4178 369.704 47.2347 369.671 47.0507C369.595 46.6427 369.519 46.2301 369.439 45.8124L369.439 45.8112C369.322 45.1945 369.205 44.5591 369.096 43.9144C368.995 43.3947 368.91 42.8631 368.825 42.3348C368.804 42.2018 368.783 42.069 368.761 41.9367C368.662 41.3269 368.57 40.6967 368.479 40.0755C368.47 40.012 368.461 39.9487 368.451 39.8854L368.451 39.8837C368.399 39.5158 368.347 39.1334 368.295 38.7521C368.25 38.4187 368.205 38.0861 368.159 37.7644L368.157 37.7523L368.158 37.7522C368.075 37.0383 367.992 36.3079 367.909 35.5782L367.908 35.5706C367.908 35.5697 367.908 35.5688 367.908 35.568C367.847 35.0786 367.793 34.5821 367.74 34.0912C367.713 33.8378 367.686 33.5859 367.658 33.3372C367.55 32.5809 367.442 31.8242 367.334 31.0591C367.228 30.3231 367.066 29.5654 366.892 28.8199C366.779 28.3643 366.671 27.9057 366.564 27.4531C366.49 27.1377 366.416 26.8253 366.342 26.5187L366.34 26.5114L366.34 26.5114C366.167 25.7434 365.977 24.977 365.771 24.2366C365.577 23.5732 365.394 22.9159 365.215 22.269C365.186 22.1652 365.158 22.0617 365.129 21.9585C364.912 21.2065 364.703 20.4632 364.503 19.737C364.404 19.3808 364.306 19.0287 364.21 18.6817C363.908 17.5929 363.619 16.5534 363.36 15.591C362.993 14.2822 362.667 13.0964 362.408 12.1094C362.128 11.0836 361.91 10.2683 361.76 9.70907C361.704 9.49941 361.658 9.32577 361.622 9.19055L337.511 6.85305ZM368.791 38.6895C368.746 38.3584 368.701 38.0264 368.654 37.6945L369.588 43.8249C369.489 43.3123 369.405 42.7892 369.32 42.2596C369.298 42.1256 369.277 41.9912 369.255 41.8565C369.156 41.251 369.065 40.6249 368.974 40.0031C368.965 39.9397 368.955 39.8763 368.946 39.813C368.893 39.4405 368.842 39.0655 368.791 38.6895Z" stroke="#5D7488"/>
<mask id="path-6-inside-4_1096_6308" fill="white">
<path d="M504.381 67.6875C506.1 67.6458 507.718 67.5958 509.302 67.5374C510.895 67.479 512.447 67.4206 513.94 67.3539C516.951 67.2204 519.828 67.062 523.056 66.9619C526.668 66.9202 530.046 66.8451 533.232 66.745C536.368 66.6449 539.304 66.5198 542.081 66.378C544.825 66.2279 547.394 66.0611 549.838 65.8693C552.257 65.6774 554.542 65.4689 556.686 65.2437C558.813 65.0185 560.823 64.76 562.708 64.493C564.117 64.1177 565.31 63.709 566.419 63.2837C567.537 62.8583 568.563 62.4329 569.522 61.9825C570.49 61.5405 571.382 61.0817 572.199 60.6146C573.025 60.1392 573.784 59.6638 574.485 59.1634C575.169 58.6713 575.811 58.1541 576.386 57.6287C576.97 57.1032 577.479 56.5611 577.946 56.0106C578.413 55.4434 578.83 54.8679 579.189 54.2674C579.548 53.6752 579.865 53.0497 580.123 52.4158C580.39 51.7652 580.607 51.0979 580.782 50.4057C580.782 50.4057 580.874 50.022 581.057 49.3214C581.132 48.9711 581.232 48.5374 581.332 48.0453C581.449 47.5365 581.583 46.961 581.708 46.3271C581.833 45.6765 581.958 44.9592 582.108 44.1919C582.242 43.4078 582.392 42.5571 582.534 41.6646C582.675 40.7555 582.825 39.7797 582.959 38.7704C583.092 37.7279 583.234 36.6436 583.368 35.5259C583.501 34.3749 583.626 33.1905 583.76 31.9728C583.876 30.7384 583.985 29.4706 584.102 28.2028C584.21 26.885 584.293 25.6005 584.202 24.5329C584.093 23.4319 583.96 22.3894 583.843 21.3968C583.668 20.421 583.509 19.5202 583.343 18.7195C583.151 17.9188 582.976 17.2015 582.834 16.6009C582.525 15.3999 582.333 14.6909 582.333 14.6909C582.333 14.6909 580.957 14.2322 578.78 13.4732C577.629 13.1062 576.245 12.6808 574.677 12.2805C573.092 11.8551 571.332 11.4297 569.464 11.0711C567.445 10.9043 565.385 10.7124 563.1 10.4539C560.08 10.0702 557.22 9.68652 554.767 9.32788C549.805 8.53551 546.544 8.01839 546.544 8.01839C546.544 8.01839 546.677 9.01093 546.877 10.6791C547.111 12.3222 547.453 14.5658 547.845 17.093C548.011 18.3108 548.22 19.5786 548.403 20.8797C548.57 22.1475 548.787 23.4153 548.971 24.7081C549.137 25.9675 549.313 27.2186 549.479 28.453C549.621 29.6457 549.788 30.8385 549.905 31.9811C550.038 33.0988 550.163 34.1914 550.263 35.234C550.355 36.2515 550.447 37.2357 550.53 38.1616C550.58 39.0707 550.647 39.9214 550.689 40.7221C550.739 41.4978 550.764 42.2235 550.789 42.8824C550.806 44.1668 550.822 45.2011 550.806 45.91C550.797 46.6107 550.789 47.0027 550.789 47.0027C550.772 47.5949 550.739 48.1704 550.689 48.7208C550.605 49.2713 550.514 49.7884 550.397 50.2972C550.13 51.2898 549.73 52.1989 549.163 53.0246C548.545 53.842 547.761 54.5843 546.694 55.2516C545.634 55.9105 544.317 56.4944 542.657 57.0031C540.997 57.5119 538.995 57.9456 536.593 58.2959C534.174 58.6379 531.33 58.9048 527.944 59.08C526.234 59.1717 524.399 59.2384 522.439 59.2885C520.913 59.4219 519.311 59.547 517.618 59.6471C515.892 59.7556 514.073 59.839 512.138 59.8973C510.195 59.9557 507.826 60.0058 504.84 60.0475C501.896 60.0892 499.135 60.0975 496.525 60.0642C493.914 60.0308 491.462 59.9641 489.151 59.8723C486.849 59.7639 484.689 59.6388 482.662 59.472C480.627 59.3135 478.709 59.1217 476.907 58.9048C473.012 58.4627 468.475 57.9706 464.58 57.3785C458.891 56.6278 455.021 55.8605 453.003 55.1265C451.009 54.3758 449.425 53.5751 448.149 52.7244C446.898 51.8653 445.938 50.9395 445.188 49.9636C444.437 48.9794 443.903 47.9201 443.486 46.7942C443.286 46.227 443.111 45.6431 442.961 45.0426C442.794 44.4254 442.635 43.7999 442.419 43.1576C442.419 43.1576 442.268 42.7322 442.01 41.9816C441.76 41.2226 441.376 40.13 440.917 38.7871C440.7 38.1115 440.459 37.3609 440.175 36.5602C439.925 35.7511 439.65 34.8753 439.366 33.9662C439.066 33.0404 438.765 32.0645 438.44 31.0553C438.14 30.0294 437.84 28.9618 437.498 27.8859C437.197 26.7682 436.864 25.6506 436.53 24.5079C436.188 23.3402 435.896 22.1642 435.579 20.9965C435.254 19.7954 434.929 18.6194 434.637 17.46C434.328 16.2923 434.045 15.1413 433.794 14.0654C433.244 11.8217 432.86 9.8867 433.069 8.52717C433.286 7.13428 433.419 6.31689 433.419 6.31689C433.419 6.31689 430.124 6.75061 425.354 7.33446C423.043 7.57634 420.408 7.85158 417.639 8.12682C414.978 8.36036 412.217 8.58555 409.498 8.77739C406.837 8.95254 404.235 9.10268 401.841 9.21111C399.506 9.31954 397.362 9.3946 395.561 9.45299C392.016 9.52805 389.697 9.56141 389.697 9.56141C389.697 9.56141 389.756 10.3454 389.906 11.6883C389.964 12.3305 390.039 13.1229 390.139 14.007C390.223 14.8744 390.323 15.8253 390.423 16.8512C390.531 17.8437 390.656 18.903 390.773 19.9956C390.89 21.0632 391.023 22.1725 391.149 23.2902C391.274 24.3828 391.399 25.4837 391.541 26.5764C391.666 27.6523 391.816 28.7199 391.941 29.7708C392.091 30.7967 392.224 31.8143 392.375 32.7902C392.5 33.7494 392.633 34.6835 392.775 35.5676C392.908 36.4517 393.042 37.2858 393.159 38.0698C393.3 38.8455 393.417 39.5711 393.534 40.2301C393.642 40.8806 393.742 41.4811 393.843 42.0066C393.943 42.5321 394.018 42.9825 394.084 43.3495C394.226 44.0918 394.31 44.5005 394.31 44.5005C394.451 45.2261 394.635 45.9267 394.868 46.619C395.119 47.3029 395.411 47.9702 395.769 48.6124C396.128 49.263 396.545 49.9052 397.029 50.5224C397.512 51.1396 398.055 51.7485 398.905 52.3741C399.956 53.0246 401.124 53.6669 402.392 54.2924C403.66 54.918 405.061 55.5352 406.57 56.1524C408.105 56.7613 409.765 57.3618 411.592 57.9623C413.418 58.5545 415.403 59.1383 417.555 59.7222C419.749 60.306 422.126 60.8732 424.745 61.4487C427.389 62.0159 430.3 62.583 433.461 63.1419C436.205 63.6506 438.74 64.1177 441.509 64.5598C444.295 65.0018 447.331 65.4355 450.884 65.8776C457.107 66.4448 463.687 66.9702 468.508 67.2205C472.578 67.4206 476.123 67.5708 479.827 67.6792C483.513 67.7626 487.4 67.821 491.462 67.8293C493.497 67.8293 495.59 67.821 497.742 67.796C499.911 67.7709 502.121 67.7376 504.381 67.6875Z"/>
</mask>
<path d="M504.381 67.6875C506.1 67.6458 507.718 67.5958 509.302 67.5374C510.895 67.479 512.447 67.4206 513.94 67.3539C516.951 67.2204 519.828 67.062 523.056 66.9619C526.668 66.9202 530.046 66.8451 533.232 66.745C536.368 66.6449 539.304 66.5198 542.081 66.378C544.825 66.2279 547.394 66.0611 549.838 65.8693C552.257 65.6774 554.542 65.4689 556.686 65.2437C558.813 65.0185 560.823 64.76 562.708 64.493C564.117 64.1177 565.31 63.709 566.419 63.2837C567.537 62.8583 568.563 62.4329 569.522 61.9825C570.49 61.5405 571.382 61.0817 572.199 60.6146C573.025 60.1392 573.784 59.6638 574.485 59.1634C575.169 58.6713 575.811 58.1541 576.386 57.6287C576.97 57.1032 577.479 56.5611 577.946 56.0106C578.413 55.4434 578.83 54.8679 579.189 54.2674C579.548 53.6752 579.865 53.0497 580.123 52.4158C580.39 51.7652 580.607 51.0979 580.782 50.4057C580.782 50.4057 580.874 50.022 581.057 49.3214C581.132 48.9711 581.232 48.5374 581.332 48.0453C581.449 47.5365 581.583 46.961 581.708 46.3271C581.833 45.6765 581.958 44.9592 582.108 44.1919C582.242 43.4078 582.392 42.5571 582.534 41.6646C582.675 40.7555 582.825 39.7797 582.959 38.7704C583.092 37.7279 583.234 36.6436 583.368 35.5259C583.501 34.3749 583.626 33.1905 583.76 31.9728C583.876 30.7384 583.985 29.4706 584.102 28.2028C584.21 26.885 584.293 25.6005 584.202 24.5329C584.093 23.4319 583.96 22.3894 583.843 21.3968C583.668 20.421 583.509 19.5202 583.343 18.7195C583.151 17.9188 582.976 17.2015 582.834 16.6009C582.525 15.3999 582.333 14.6909 582.333 14.6909C582.333 14.6909 580.957 14.2322 578.78 13.4732C577.629 13.1062 576.245 12.6808 574.677 12.2805C573.092 11.8551 571.332 11.4297 569.464 11.0711C567.445 10.9043 565.385 10.7124 563.1 10.4539C560.08 10.0702 557.22 9.68652 554.767 9.32788C549.805 8.53551 546.544 8.01839 546.544 8.01839C546.544 8.01839 546.677 9.01093 546.877 10.6791C547.111 12.3222 547.453 14.5658 547.845 17.093C548.011 18.3108 548.22 19.5786 548.403 20.8797C548.57 22.1475 548.787 23.4153 548.971 24.7081C549.137 25.9675 549.313 27.2186 549.479 28.453C549.621 29.6457 549.788 30.8385 549.905 31.9811C550.038 33.0988 550.163 34.1914 550.263 35.234C550.355 36.2515 550.447 37.2357 550.53 38.1616C550.58 39.0707 550.647 39.9214 550.689 40.7221C550.739 41.4978 550.764 42.2235 550.789 42.8824C550.806 44.1668 550.822 45.2011 550.806 45.91C550.797 46.6107 550.789 47.0027 550.789 47.0027C550.772 47.5949 550.739 48.1704 550.689 48.7208C550.605 49.2713 550.514 49.7884 550.397 50.2972C550.13 51.2898 549.73 52.1989 549.163 53.0246C548.545 53.842 547.761 54.5843 546.694 55.2516C545.634 55.9105 544.317 56.4944 542.657 57.0031C540.997 57.5119 538.995 57.9456 536.593 58.2959C534.174 58.6379 531.33 58.9048 527.944 59.08C526.234 59.1717 524.399 59.2384 522.439 59.2885C520.913 59.4219 519.311 59.547 517.618 59.6471C515.892 59.7556 514.073 59.839 512.138 59.8973C510.195 59.9557 507.826 60.0058 504.84 60.0475C501.896 60.0892 499.135 60.0975 496.525 60.0642C493.914 60.0308 491.462 59.9641 489.151 59.8723C486.849 59.7639 484.689 59.6388 482.662 59.472C480.627 59.3135 478.709 59.1217 476.907 58.9048C473.012 58.4627 468.475 57.9706 464.58 57.3785C458.891 56.6278 455.021 55.8605 453.003 55.1265C451.009 54.3758 449.425 53.5751 448.149 52.7244C446.898 51.8653 445.938 50.9395 445.188 49.9636C444.437 48.9794 443.903 47.9201 443.486 46.7942C443.286 46.227 443.111 45.6431 442.961 45.0426C442.794 44.4254 442.635 43.7999 442.419 43.1576C442.419 43.1576 442.268 42.7322 442.01 41.9816C441.76 41.2226 441.376 40.13 440.917 38.7871C440.7 38.1115 440.459 37.3609 440.175 36.5602C439.925 35.7511 439.65 34.8753 439.366 33.9662C439.066 33.0404 438.765 32.0645 438.44 31.0553C438.14 30.0294 437.84 28.9618 437.498 27.8859C437.197 26.7682 436.864 25.6506 436.53 24.5079C436.188 23.3402 435.896 22.1642 435.579 20.9965C435.254 19.7954 434.929 18.6194 434.637 17.46C434.328 16.2923 434.045 15.1413 433.794 14.0654C433.244 11.8217 432.86 9.8867 433.069 8.52717C433.286 7.13428 433.419 6.31689 433.419 6.31689C433.419 6.31689 430.124 6.75061 425.354 7.33446C423.043 7.57634 420.408 7.85158 417.639 8.12682C414.978 8.36036 412.217 8.58555 409.498 8.77739C406.837 8.95254 404.235 9.10268 401.841 9.21111C399.506 9.31954 397.362 9.3946 395.561 9.45299C392.016 9.52805 389.697 9.56141 389.697 9.56141C389.697 9.56141 389.756 10.3454 389.906 11.6883C389.964 12.3305 390.039 13.1229 390.139 14.007C390.223 14.8744 390.323 15.8253 390.423 16.8512C390.531 17.8437 390.656 18.903 390.773 19.9956C390.89 21.0632 391.023 22.1725 391.149 23.2902C391.274 24.3828 391.399 25.4837 391.541 26.5764C391.666 27.6523 391.816 28.7199 391.941 29.7708C392.091 30.7967 392.224 31.8143 392.375 32.7902C392.5 33.7494 392.633 34.6835 392.775 35.5676C392.908 36.4517 393.042 37.2858 393.159 38.0698C393.3 38.8455 393.417 39.5711 393.534 40.2301C393.642 40.8806 393.742 41.4811 393.843 42.0066C393.943 42.5321 394.018 42.9825 394.084 43.3495C394.226 44.0918 394.31 44.5005 394.31 44.5005C394.451 45.2261 394.635 45.9267 394.868 46.619C395.119 47.3029 395.411 47.9702 395.769 48.6124C396.128 49.263 396.545 49.9052 397.029 50.5224C397.512 51.1396 398.055 51.7485 398.905 52.3741C399.956 53.0246 401.124 53.6669 402.392 54.2924C403.66 54.918 405.061 55.5352 406.57 56.1524C408.105 56.7613 409.765 57.3618 411.592 57.9623C413.418 58.5545 415.403 59.1383 417.555 59.7222C419.749 60.306 422.126 60.8732 424.745 61.4487C427.389 62.0159 430.3 62.583 433.461 63.1419C436.205 63.6506 438.74 64.1177 441.509 64.5598C444.295 65.0018 447.331 65.4355 450.884 65.8776C457.107 66.4448 463.687 66.9702 468.508 67.2205C472.578 67.4206 476.123 67.5708 479.827 67.6792C483.513 67.7626 487.4 67.821 491.462 67.8293C493.497 67.8293 495.59 67.821 497.742 67.796C499.911 67.7709 502.121 67.7376 504.381 67.6875Z" stroke="#5D7488" stroke-width="2" mask="url(#path-6-inside-4_1096_6308)"/>
<mask id="path-7-inside-5_1096_6308" fill="white">
<path d="M592.786 62.1909C592.786 62.1909 594.237 61.9407 596.423 61.557C597.54 61.3652 598.825 61.1317 600.218 60.8731C601.619 60.6229 603.12 60.331 604.638 60.039C606.165 59.7471 607.683 59.4468 608.984 59.2216C609.951 59.1549 610.694 59.1633 611.152 59.2133C612.011 59.3551 612.579 59.4468 612.579 59.4468C612.579 59.4468 612.587 59.2217 612.604 58.813C612.612 58.4126 612.629 57.8371 612.637 57.1448C612.637 56.7945 612.637 56.4109 612.637 56.0105C612.637 55.6101 612.629 55.1764 612.612 54.7344C612.604 54.2923 612.587 53.8252 612.57 53.3498C612.545 52.8661 612.52 52.3823 612.495 51.8819C612.453 51.3898 612.42 50.881 612.387 50.3889C612.337 49.8884 612.295 49.388 612.253 48.9042C612.203 48.4121 612.153 47.9367 612.103 47.478C612.045 47.0109 611.995 46.5772 611.945 46.1685C611.836 45.3344 611.744 44.6338 611.669 44.1334C611.594 43.6246 611.553 43.3327 611.553 43.3327C611.553 43.3327 611.778 43.6747 612.161 44.2585C612.353 44.5504 612.587 44.9007 612.854 45.2927C613.112 45.6764 613.396 46.1185 613.713 46.5939C614.021 47.0526 614.347 47.5531 614.689 48.0702C615.031 48.5873 615.381 49.1211 615.74 49.6632C616.09 50.2054 616.44 50.7559 616.799 51.3147C617.158 51.8568 617.5 52.4073 617.85 52.9495C618.192 53.4833 618.525 54.0171 618.851 54.5342C619.168 55.043 619.476 55.5434 619.777 56.0272C620.068 56.5026 620.344 56.953 620.602 57.3784C620.852 57.8037 621.094 58.1958 621.311 58.5544C621.528 58.9131 621.72 59.2383 621.895 59.5219C622.07 59.8055 622.212 60.0557 622.337 60.2559C622.571 60.6562 622.704 60.8898 622.704 60.8898C622.704 60.8898 623.205 60.9482 623.955 61.0232C624.322 61.0649 624.756 61.1066 625.215 61.1567C625.673 61.2067 626.165 61.2568 626.658 61.3068C627.141 61.3569 627.617 61.4152 628.076 61.457C628.526 61.507 628.951 61.5487 629.302 61.5821C630.027 61.6571 630.503 61.7072 630.503 61.7072C630.503 61.7072 630.669 61.5153 630.953 61.1734C631.103 61.0066 631.278 60.798 631.479 60.5562C631.679 60.3143 631.904 60.0474 632.146 59.7555C632.396 59.4635 632.655 59.1466 632.938 58.8046C633.213 58.4626 633.505 58.104 633.814 57.7287C634.114 57.3533 634.431 56.9697 634.74 56.5693C635.057 56.1606 635.382 55.7519 635.699 55.3432C636.016 54.9179 636.333 54.5008 636.65 54.0755C636.967 53.6584 637.267 53.233 637.567 52.8244C637.859 52.4073 638.151 51.9986 638.418 51.6066C638.693 51.2146 638.943 50.8393 639.177 50.4806C639.41 50.122 639.619 49.7967 639.802 49.4964C639.994 49.2045 640.153 48.9376 640.286 48.7207C640.545 48.2787 640.695 48.0201 640.695 48.0201C640.695 48.0201 640.703 48.287 640.712 48.7458C640.72 49.2045 640.728 49.8467 640.72 50.5974C640.72 50.9727 640.712 51.3731 640.695 51.7818C640.687 52.1988 640.662 52.6325 640.637 53.0746C640.612 53.5166 640.578 53.967 640.553 54.4174C640.511 54.8595 640.478 55.3099 640.445 55.7603C640.395 56.2107 640.353 56.6444 640.311 57.0781C640.261 57.5035 640.22 57.9205 640.169 58.3209C640.119 58.7212 640.078 59.1049 640.036 59.4719C639.986 59.8389 639.936 60.1725 639.894 60.4894C639.811 61.1233 639.744 61.6404 639.694 62.0074C639.636 62.3744 639.611 62.5829 639.611 62.5829C639.611 62.5829 640.086 62.6246 640.812 62.6914C641.17 62.7247 641.596 62.7581 642.046 62.7998C642.505 62.8415 642.989 62.8832 643.481 62.9249C643.965 62.9666 644.457 63.0083 644.915 63.05C645.382 63.0917 645.816 63.1251 646.191 63.1584C646.942 63.2168 647.443 63.2585 647.443 63.2585C647.443 63.2585 647.518 62.8832 647.626 62.216C647.684 61.8823 647.751 61.482 647.835 61.0066C647.918 60.5395 648.01 60.014 648.11 59.4302C648.16 59.1466 648.218 58.838 648.268 58.521C648.327 58.2041 648.377 57.8705 648.443 57.5285C648.493 57.1865 648.56 56.8362 648.619 56.4692C648.677 56.1022 648.744 55.7269 648.802 55.3349C648.86 54.9429 648.927 54.5425 648.986 54.1338C649.044 53.7252 649.102 53.2998 649.152 52.8744C649.202 52.4407 649.252 51.9986 649.286 51.5482C649.311 51.0978 649.319 50.6391 649.328 50.1637C649.328 49.6966 649.319 49.2129 649.303 48.7374C649.294 48.2537 649.278 47.7616 649.261 47.2695C649.244 46.7774 649.236 46.2769 649.211 45.7765C649.194 45.2761 649.177 44.7756 649.152 44.2835C649.144 43.7747 649.127 43.2826 649.102 42.7905C649.094 42.2817 649.077 41.7897 649.069 41.3059C649.052 40.8138 649.036 40.33 649.027 39.863C649.019 39.3792 649.011 38.9121 649.002 38.4701C648.986 37.5526 648.977 36.6935 648.969 35.9178C648.969 35.1338 648.961 34.4332 648.969 33.8493C648.977 32.665 648.977 31.9643 648.977 31.9643C648.977 31.9643 648.335 32.0144 647.367 32.0811C646.892 32.1145 646.333 32.1395 645.741 32.1645C645.149 32.1979 644.523 32.2146 643.889 32.2396C643.272 32.2479 642.647 32.2563 642.063 32.2563C641.479 32.2646 640.945 32.2646 640.478 32.2563C639.552 32.2396 638.943 32.2229 638.943 32.2229C638.943 32.2229 638.743 32.7233 638.418 33.5824C638.251 34.0078 638.059 34.5083 637.826 35.0838C637.601 35.6426 637.35 36.2681 637.075 36.9354C636.8 37.586 636.516 38.2866 636.208 39.0039C636.049 39.3625 635.891 39.7212 635.732 40.0882C635.574 40.4468 635.407 40.8221 635.24 41.1891C635.073 41.5478 634.906 41.9148 634.731 42.2734C634.565 42.6404 634.381 43.0074 634.206 43.366C634.031 43.7247 633.856 44.0833 633.672 44.442C633.497 44.7923 633.322 45.1343 633.13 45.4846C632.955 45.8182 632.771 46.1602 632.588 46.4938C632.404 46.8274 632.221 47.1527 632.046 47.4696C631.854 47.7949 631.679 48.1035 631.495 48.4121C631.312 48.7124 631.128 49.0127 630.953 49.3046C630.778 49.5882 630.603 49.8718 630.428 50.1387C630.252 50.4139 630.086 50.6808 629.919 50.9394C629.585 51.4398 629.268 51.9152 628.976 52.3489C628.684 52.7743 628.409 53.1663 628.167 53.5083C627.925 53.8503 627.708 54.1422 627.533 54.3841C627.175 54.8678 626.975 55.1431 626.975 55.1431C626.975 55.1431 626.774 54.8178 626.432 54.2506C626.257 53.9587 626.04 53.6084 625.79 53.208C625.532 52.7993 625.24 52.3323 624.923 51.8235C624.597 51.298 624.23 50.7392 623.847 50.1303C623.655 49.8217 623.455 49.5048 623.246 49.1712C623.038 48.8459 622.821 48.5039 622.596 48.1536C622.37 47.7866 622.145 47.4196 621.903 47.0443C621.67 46.6606 621.428 46.2603 621.178 45.8682C620.928 45.4679 620.669 45.0509 620.41 44.6338C620.152 44.2168 619.893 43.7914 619.618 43.366C619.351 42.924 619.076 42.4819 618.801 42.0399C618.525 41.5895 618.242 41.1391 617.958 40.6803C617.675 40.2216 617.399 39.7545 617.108 39.2958C616.816 38.8287 616.532 38.3616 616.248 37.8946C615.957 37.4191 615.665 36.9521 615.381 36.485C615.097 36.0096 614.814 35.5425 614.53 35.0838C613.963 34.1413 613.404 33.2238 612.879 32.3647C612.353 31.4806 611.853 30.6465 611.403 29.8959C610.944 29.1285 610.543 28.4446 610.201 27.8691C609.509 26.7014 609.1 26.0091 609.1 26.0091C609.1 26.0091 608.325 25.7172 607.149 25.2501C606.548 25.0166 605.839 24.733 605.08 24.416C604.296 24.0991 603.454 23.7404 602.611 23.3735C601.736 22.9981 600.852 22.6145 600.017 22.2391C599.158 21.8555 598.349 21.4801 597.649 21.1548C596.214 20.4876 595.238 20.0205 595.238 20.0205C595.238 20.0205 595.53 20.9547 596.022 22.5144C596.264 23.2817 596.539 24.1825 596.848 25.2001C597.148 26.2009 597.474 27.2852 597.807 28.4446C597.974 29.0201 598.141 29.5956 598.308 30.1961C598.483 30.7883 598.641 31.3805 598.808 31.9894C598.975 32.5816 599.133 33.1904 599.292 33.7993C599.45 34.3998 599.609 35.0003 599.759 35.6092C599.851 36.2348 599.942 36.8687 600.017 37.5026C600.093 38.1198 600.159 38.7453 600.218 39.3709C600.268 39.9881 600.318 40.5969 600.368 41.1975C600.401 41.798 600.443 42.3902 600.451 42.9824C600.443 43.5829 600.384 44.2001 600.309 44.8173C600.184 45.4679 599.967 46.1518 599.726 46.8358C599.484 47.5114 599.258 48.1703 599.017 48.8125C598.783 49.4464 598.541 50.0636 598.316 50.6641C598.074 51.2563 597.857 51.8318 597.615 52.3823C597.399 52.9328 597.165 53.4666 596.931 53.9837C596.715 54.4841 596.498 54.9762 596.289 55.4433C596.064 55.9104 595.864 56.3525 595.647 56.7778C595.238 57.6202 594.863 58.3792 594.504 59.0465C594.171 59.7054 593.854 60.2809 593.612 60.7397C593.086 61.6655 592.786 62.1909 592.786 62.1909Z"/>
</mask>
<path d="M592.786 62.1909C592.786 62.1909 594.237 61.9407 596.423 61.557C597.54 61.3652 598.825 61.1317 600.218 60.8731C601.619 60.6229 603.12 60.331 604.638 60.039C606.165 59.7471 607.683 59.4468 608.984 59.2216C609.951 59.1549 610.694 59.1633 611.152 59.2133C612.011 59.3551 612.579 59.4468 612.579 59.4468C612.579 59.4468 612.587 59.2217 612.604 58.813C612.612 58.4126 612.629 57.8371 612.637 57.1448C612.637 56.7945 612.637 56.4109 612.637 56.0105C612.637 55.6101 612.629 55.1764 612.612 54.7344C612.604 54.2923 612.587 53.8252 612.57 53.3498C612.545 52.8661 612.52 52.3823 612.495 51.8819C612.453 51.3898 612.42 50.881 612.387 50.3889C612.337 49.8884 612.295 49.388 612.253 48.9042C612.203 48.4121 612.153 47.9367 612.103 47.478C612.045 47.0109 611.995 46.5772 611.945 46.1685C611.836 45.3344 611.744 44.6338 611.669 44.1334C611.594 43.6246 611.553 43.3327 611.553 43.3327C611.553 43.3327 611.778 43.6747 612.161 44.2585C612.353 44.5504 612.587 44.9007 612.854 45.2927C613.112 45.6764 613.396 46.1185 613.713 46.5939C614.021 47.0526 614.347 47.5531 614.689 48.0702C615.031 48.5873 615.381 49.1211 615.74 49.6632C616.09 50.2054 616.44 50.7559 616.799 51.3147C617.158 51.8568 617.5 52.4073 617.85 52.9495C618.192 53.4833 618.525 54.0171 618.851 54.5342C619.168 55.043 619.476 55.5434 619.777 56.0272C620.068 56.5026 620.344 56.953 620.602 57.3784C620.852 57.8037 621.094 58.1958 621.311 58.5544C621.528 58.9131 621.72 59.2383 621.895 59.5219C622.07 59.8055 622.212 60.0557 622.337 60.2559C622.571 60.6562 622.704 60.8898 622.704 60.8898C622.704 60.8898 623.205 60.9482 623.955 61.0232C624.322 61.0649 624.756 61.1066 625.215 61.1567C625.673 61.2067 626.165 61.2568 626.658 61.3068C627.141 61.3569 627.617 61.4152 628.076 61.457C628.526 61.507 628.951 61.5487 629.302 61.5821C630.027 61.6571 630.503 61.7072 630.503 61.7072C630.503 61.7072 630.669 61.5153 630.953 61.1734C631.103 61.0066 631.278 60.798 631.479 60.5562C631.679 60.3143 631.904 60.0474 632.146 59.7555C632.396 59.4635 632.655 59.1466 632.938 58.8046C633.213 58.4626 633.505 58.104 633.814 57.7287C634.114 57.3533 634.431 56.9697 634.74 56.5693C635.057 56.1606 635.382 55.7519 635.699 55.3432C636.016 54.9179 636.333 54.5008 636.65 54.0755C636.967 53.6584 637.267 53.233 637.567 52.8244C637.859 52.4073 638.151 51.9986 638.418 51.6066C638.693 51.2146 638.943 50.8393 639.177 50.4806C639.41 50.122 639.619 49.7967 639.802 49.4964C639.994 49.2045 640.153 48.9376 640.286 48.7207C640.545 48.2787 640.695 48.0201 640.695 48.0201C640.695 48.0201 640.703 48.287 640.712 48.7458C640.72 49.2045 640.728 49.8467 640.72 50.5974C640.72 50.9727 640.712 51.3731 640.695 51.7818C640.687 52.1988 640.662 52.6325 640.637 53.0746C640.612 53.5166 640.578 53.967 640.553 54.4174C640.511 54.8595 640.478 55.3099 640.445 55.7603C640.395 56.2107 640.353 56.6444 640.311 57.0781C640.261 57.5035 640.22 57.9205 640.169 58.3209C640.119 58.7212 640.078 59.1049 640.036 59.4719C639.986 59.8389 639.936 60.1725 639.894 60.4894C639.811 61.1233 639.744 61.6404 639.694 62.0074C639.636 62.3744 639.611 62.5829 639.611 62.5829C639.611 62.5829 640.086 62.6246 640.812 62.6914C641.17 62.7247 641.596 62.7581 642.046 62.7998C642.505 62.8415 642.989 62.8832 643.481 62.9249C643.965 62.9666 644.457 63.0083 644.915 63.05C645.382 63.0917 645.816 63.1251 646.191 63.1584C646.942 63.2168 647.443 63.2585 647.443 63.2585C647.443 63.2585 647.518 62.8832 647.626 62.216C647.684 61.8823 647.751 61.482 647.835 61.0066C647.918 60.5395 648.01 60.014 648.11 59.4302C648.16 59.1466 648.218 58.838 648.268 58.521C648.327 58.2041 648.377 57.8705 648.443 57.5285C648.493 57.1865 648.56 56.8362 648.619 56.4692C648.677 56.1022 648.744 55.7269 648.802 55.3349C648.86 54.9429 648.927 54.5425 648.986 54.1338C649.044 53.7252 649.102 53.2998 649.152 52.8744C649.202 52.4407 649.252 51.9986 649.286 51.5482C649.311 51.0978 649.319 50.6391 649.328 50.1637C649.328 49.6966 649.319 49.2129 649.303 48.7374C649.294 48.2537 649.278 47.7616 649.261 47.2695C649.244 46.7774 649.236 46.2769 649.211 45.7765C649.194 45.2761 649.177 44.7756 649.152 44.2835C649.144 43.7747 649.127 43.2826 649.102 42.7905C649.094 42.2817 649.077 41.7897 649.069 41.3059C649.052 40.8138 649.036 40.33 649.027 39.863C649.019 39.3792 649.011 38.9121 649.002 38.4701C648.986 37.5526 648.977 36.6935 648.969 35.9178C648.969 35.1338 648.961 34.4332 648.969 33.8493C648.977 32.665 648.977 31.9643 648.977 31.9643C648.977 31.9643 648.335 32.0144 647.367 32.0811C646.892 32.1145 646.333 32.1395 645.741 32.1645C645.149 32.1979 644.523 32.2146 643.889 32.2396C643.272 32.2479 642.647 32.2563 642.063 32.2563C641.479 32.2646 640.945 32.2646 640.478 32.2563C639.552 32.2396 638.943 32.2229 638.943 32.2229C638.943 32.2229 638.743 32.7233 638.418 33.5824C638.251 34.0078 638.059 34.5083 637.826 35.0838C637.601 35.6426 637.35 36.2681 637.075 36.9354C636.8 37.586 636.516 38.2866 636.208 39.0039C636.049 39.3625 635.891 39.7212 635.732 40.0882C635.574 40.4468 635.407 40.8221 635.24 41.1891C635.073 41.5478 634.906 41.9148 634.731 42.2734C634.565 42.6404 634.381 43.0074 634.206 43.366C634.031 43.7247 633.856 44.0833 633.672 44.442C633.497 44.7923 633.322 45.1343 633.13 45.4846C632.955 45.8182 632.771 46.1602 632.588 46.4938C632.404 46.8274 632.221 47.1527 632.046 47.4696C631.854 47.7949 631.679 48.1035 631.495 48.4121C631.312 48.7124 631.128 49.0127 630.953 49.3046C630.778 49.5882 630.603 49.8718 630.428 50.1387C630.252 50.4139 630.086 50.6808 629.919 50.9394C629.585 51.4398 629.268 51.9152 628.976 52.3489C628.684 52.7743 628.409 53.1663 628.167 53.5083C627.925 53.8503 627.708 54.1422 627.533 54.3841C627.175 54.8678 626.975 55.1431 626.975 55.1431C626.975 55.1431 626.774 54.8178 626.432 54.2506C626.257 53.9587 626.04 53.6084 625.79 53.208C625.532 52.7993 625.24 52.3323 624.923 51.8235C624.597 51.298 624.23 50.7392 623.847 50.1303C623.655 49.8217 623.455 49.5048 623.246 49.1712C623.038 48.8459 622.821 48.5039 622.596 48.1536C622.37 47.7866 622.145 47.4196 621.903 47.0443C621.67 46.6606 621.428 46.2603 621.178 45.8682C620.928 45.4679 620.669 45.0509 620.41 44.6338C620.152 44.2168 619.893 43.7914 619.618 43.366C619.351 42.924 619.076 42.4819 618.801 42.0399C618.525 41.5895 618.242 41.1391 617.958 40.6803C617.675 40.2216 617.399 39.7545 617.108 39.2958C616.816 38.8287 616.532 38.3616 616.248 37.8946C615.957 37.4191 615.665 36.9521 615.381 36.485C615.097 36.0096 614.814 35.5425 614.53 35.0838C613.963 34.1413 613.404 33.2238 612.879 32.3647C612.353 31.4806 611.853 30.6465 611.403 29.8959C610.944 29.1285 610.543 28.4446 610.201 27.8691C609.509 26.7014 609.1 26.0091 609.1 26.0091C609.1 26.0091 608.325 25.7172 607.149 25.2501C606.548 25.0166 605.839 24.733 605.08 24.416C604.296 24.0991 603.454 23.7404 602.611 23.3735C601.736 22.9981 600.852 22.6145 600.017 22.2391C599.158 21.8555 598.349 21.4801 597.649 21.1548C596.214 20.4876 595.238 20.0205 595.238 20.0205C595.238 20.0205 595.53 20.9547 596.022 22.5144C596.264 23.2817 596.539 24.1825 596.848 25.2001C597.148 26.2009 597.474 27.2852 597.807 28.4446C597.974 29.0201 598.141 29.5956 598.308 30.1961C598.483 30.7883 598.641 31.3805 598.808 31.9894C598.975 32.5816 599.133 33.1904 599.292 33.7993C599.45 34.3998 599.609 35.0003 599.759 35.6092C599.851 36.2348 599.942 36.8687 600.017 37.5026C600.093 38.1198 600.159 38.7453 600.218 39.3709C600.268 39.9881 600.318 40.5969 600.368 41.1975C600.401 41.798 600.443 42.3902 600.451 42.9824C600.443 43.5829 600.384 44.2001 600.309 44.8173C600.184 45.4679 599.967 46.1518 599.726 46.8358C599.484 47.5114 599.258 48.1703 599.017 48.8125C598.783 49.4464 598.541 50.0636 598.316 50.6641C598.074 51.2563 597.857 51.8318 597.615 52.3823C597.399 52.9328 597.165 53.4666 596.931 53.9837C596.715 54.4841 596.498 54.9762 596.289 55.4433C596.064 55.9104 595.864 56.3525 595.647 56.7778C595.238 57.6202 594.863 58.3792 594.504 59.0465C594.171 59.7054 593.854 60.2809 593.612 60.7397C593.086 61.6655 592.786 62.1909 592.786 62.1909Z" stroke="#5D7488" stroke-width="2" mask="url(#path-7-inside-5_1096_6308)"/>
</svg>
